<?xml version="1.0" encoding="utf-8"?>
<svg version="1.2" baseProfile="tiny" id="Layer_1" xmlns="http://www.w3.org/2000/svg" xmlns:xlink="http://www.w3.org/1999/xlink"
	 x="0px" y="0px" viewBox="0 0 790.01 243.49" overflow="visible" xml:space="preserve">
<rect fill="#FFFFFF" width="790.01" height="243.49"/>
<g>
	<text transform="matrix(1 0 0 1 11.0089 198.5938)" font-family="'CaskaydiaCoveNFM-Regular'" font-size="21px">main.tex</text>
	<text transform="matrix(1 0 0 1 10.3342 233.2081)" font-family="'CaskaydiaCoveNFM-Bold'" font-size="21px">Complicated LaTeX project</text>
	<text transform="matrix(1 0 0 1 439.6854 233.2081)" font-family="'CaskaydiaCoveNFM-Bold'" font-size="21px">Flattened LaTeX project</text>
	<text transform="matrix(1 0 0 1 140.4226 198.5938)" font-family="'CaskaydiaCoveNFM-Regular'" font-size="21px">bibfile.bib</text>
	<text transform="matrix(1 0 0 1 294.9442 86.8016)" font-family="'CaskaydiaCoveNFM-Italic'" font-size="24px">pylatexpand</text>
	<g>
		<path fill="none" stroke="#000000" stroke-width="2.5561" stroke-linecap="round" stroke-linejoin="round" d="M64.4,137.51H50.2
			c-1.85,0-3.34,1.5-3.34,3.34v26.73c0,1.85,1.5,3.34,3.34,3.34h20.05c1.85,0,3.34-1.5,3.34-3.34V146.7L64.4,137.51z"/>
		<polyline fill="none" stroke="#000000" stroke-width="2.5561" stroke-linecap="round" stroke-linejoin="round" points="
			63.57,137.51 63.57,147.54 73.59,147.54 		"/>
		<path fill="none" stroke="#000000" stroke-width="2.5561" stroke-linecap="round" stroke-linejoin="round" d="M55.22,155.89v-1.67
			h10.02v1.67"/>
		<path fill="none" stroke="#000000" stroke-width="2.5561" stroke-linecap="round" stroke-linejoin="round" d="M58.56,164.25h3.34"
			/>
		<path fill="none" stroke="#000000" stroke-width="2.5561" stroke-linecap="round" stroke-linejoin="round" d="M60.23,154.22v10.02
			"/>
	</g>
	<g>
		<g>
			<g>
				<path fill="none" stroke="#000000" stroke-width="2.1727" stroke-linecap="round" stroke-linejoin="round" d="M25.25,19.76
					H13.17c-1.57,0-2.84,1.27-2.84,2.84v22.72c0,1.57,1.27,2.84,2.84,2.84h17.04c1.57,0,2.84-1.27,2.84-2.84V27.57L25.25,19.76z"/>
				<polyline fill="none" stroke="#000000" stroke-width="2.1727" stroke-linecap="round" stroke-linejoin="round" points="
					24.54,19.76 24.54,28.28 33.06,28.28 				"/>
				<path fill="none" stroke="#000000" stroke-width="2.1727" stroke-linecap="round" stroke-linejoin="round" d="M17.43,35.38
					v-1.42h8.52v1.42"/>
				<path fill="none" stroke="#000000" stroke-width="2.1727" stroke-linecap="round" stroke-linejoin="round" d="M20.27,42.48h2.84
					"/>
				<path fill="none" stroke="#000000" stroke-width="2.1727" stroke-linecap="round" stroke-linejoin="round" d="M21.7,33.96v8.52"
					/>
			</g>
			<g>
				<path fill="none" stroke="#000000" stroke-width="2.1727" stroke-linecap="round" stroke-linejoin="round" d="M64.39,19.76
					H52.32c-1.57,0-2.84,1.27-2.84,2.84v22.72c0,1.57,1.27,2.84,2.84,2.84h17.04c1.57,0,2.84-1.27,2.84-2.84V27.57L64.39,19.76z"/>
				<polyline fill="none" stroke="#000000" stroke-width="2.1727" stroke-linecap="round" stroke-linejoin="round" points="
					63.68,19.76 63.68,28.28 72.2,28.28 				"/>
				<path fill="none" stroke="#000000" stroke-width="2.1727" stroke-linecap="round" stroke-linejoin="round" d="M56.58,35.38
					v-1.42h8.52v1.42"/>
				<path fill="none" stroke="#000000" stroke-width="2.1727" stroke-linecap="round" stroke-linejoin="round" d="M59.42,42.48h2.84
					"/>
				<path fill="none" stroke="#000000" stroke-width="2.1727" stroke-linecap="round" stroke-linejoin="round" d="M60.84,33.96v8.52
					"/>
			</g>
			<g>
				<path fill="none" stroke="#000000" stroke-width="2.1727" stroke-linecap="round" stroke-linejoin="round" d="M103.54,19.76
					H91.47c-1.57,0-2.84,1.27-2.84,2.84v22.72c0,1.57,1.27,2.84,2.84,2.84h17.04c1.57,0,2.84-1.27,2.84-2.84V27.57L103.54,19.76z"/>
				<polyline fill="none" stroke="#000000" stroke-width="2.1727" stroke-linecap="round" stroke-linejoin="round" points="
					102.83,19.76 102.83,28.28 111.35,28.28 				"/>
				<path fill="none" stroke="#000000" stroke-width="2.1727" stroke-linecap="round" stroke-linejoin="round" d="M95.73,35.38
					v-1.42h8.52v1.42"/>
				<path fill="none" stroke="#000000" stroke-width="2.1727" stroke-linecap="round" stroke-linejoin="round" d="M98.57,42.48h2.84
					"/>
				<path fill="none" stroke="#000000" stroke-width="2.1727" stroke-linecap="round" stroke-linejoin="round" d="M99.99,33.96v8.52
					"/>
			</g>
		</g>
		<path fill="none" stroke="#000000" stroke-width="2.5561" stroke-linecap="round" stroke-linejoin="round" d="M50.81,82.61
			l2.51-4.85c0.56-1.1,1.67-1.81,2.91-1.84H74.2c1.85,0,3.34,1.49,3.35,3.34c0,0.28-0.04,0.57-0.11,0.84l-2.57,10.02
			c-0.38,1.48-1.73,2.52-3.26,2.51H47.47c-1.85,0-3.34-1.5-3.34-3.34V67.57c0-1.85,1.5-3.34,3.34-3.34h6.52
			c1.14-0.01,2.2,0.56,2.82,1.5l1.35,2c0.62,0.94,1.67,1.5,2.79,1.5h9.91c1.85,0,3.34,1.5,3.34,3.34v3.34"/>
	</g>
	<g>
		<g>
			<path fill="none" stroke="#000000" stroke-width="2.1727" stroke-linecap="round" stroke-linejoin="round" d="M202.85,19.76
				h-12.07c-1.57,0-2.84,1.27-2.84,2.84v22.72c0,1.57,1.27,2.84,2.84,2.84h17.04c1.57,0,2.84-1.27,2.84-2.84V27.57L202.85,19.76z"/>
			<polyline fill="none" stroke="#000000" stroke-width="2.1727" stroke-linecap="round" stroke-linejoin="round" points="
				202.14,19.76 202.14,28.28 210.66,28.28 			"/>
			
				<circle fill="none" stroke="#000000" stroke-width="2.1727" stroke-linecap="round" stroke-linejoin="round" cx="196.46" cy="35.38" r="2.84"/>
			<path fill="none" stroke="#000000" stroke-width="2.1727" stroke-linecap="round" stroke-linejoin="round" d="M210.66,41.06
				l-1.55-1.55c-1.11-1.1-2.9-1.1-4,0l-8.65,8.65"/>
		</g>
		<g>
			<path fill="none" stroke="#000000" stroke-width="2.1727" stroke-linecap="round" stroke-linejoin="round" d="M165.87,19.76
				H153.8c-1.57,0-2.84,1.27-2.84,2.84v22.72c0,1.57,1.27,2.84,2.84,2.84h17.04c1.57,0,2.84-1.27,2.84-2.84V27.57L165.87,19.76z"/>
			<polyline fill="none" stroke="#000000" stroke-width="2.1727" stroke-linecap="round" stroke-linejoin="round" points="
				165.16,19.76 165.16,28.28 173.68,28.28 			"/>
			
				<circle fill="none" stroke="#000000" stroke-width="2.1727" stroke-linecap="round" stroke-linejoin="round" cx="159.48" cy="35.38" r="2.84"/>
			<path fill="none" stroke="#000000" stroke-width="2.1727" stroke-linecap="round" stroke-linejoin="round" d="M173.68,41.06
				l-1.55-1.55c-1.11-1.1-2.9-1.1-4,0l-8.65,8.65"/>
		</g>
		<path fill="none" stroke="#000000" stroke-width="2.5561" stroke-linecap="round" stroke-linejoin="round" d="M170.78,82.61
			l2.51-4.85c0.56-1.1,1.67-1.81,2.91-1.84h17.98c1.85,0,3.34,1.49,3.35,3.34c0,0.28-0.04,0.57-0.11,0.84l-2.57,10.02
			c-0.38,1.48-1.73,2.52-3.26,2.51h-24.14c-1.85,0-3.34-1.5-3.34-3.34V67.57c0-1.85,1.5-3.34,3.34-3.34h6.52
			c1.14-0.01,2.2,0.56,2.82,1.5l1.35,2c0.62,0.94,1.67,1.5,2.79,1.5h9.91c1.85,0,3.34,1.5,3.34,3.34v3.34"/>
	</g>
	<g>
		<path fill="none" stroke="#000000" stroke-width="2.5561" stroke-linecap="round" stroke-linejoin="round" d="M212.28,137.51
			h-14.2c-1.85,0-3.34,1.5-3.34,3.34v26.73c0,1.85,1.5,3.34,3.34,3.34h20.05c1.85,0,3.34-1.5,3.34-3.34V146.7L212.28,137.51z"/>
		<polyline fill="none" stroke="#000000" stroke-width="2.5561" stroke-linecap="round" stroke-linejoin="round" points="
			211.44,137.51 211.44,147.54 221.46,147.54 		"/>
		
			<line fill="none" stroke="#000000" stroke-width="2.5561" stroke-linecap="round" stroke-linejoin="round" x1="214.78" y1="155.89" x2="201.42" y2="155.89"/>
		
			<line fill="none" stroke="#000000" stroke-width="2.5561" stroke-linecap="round" stroke-linejoin="round" x1="214.78" y1="162.58" x2="201.42" y2="162.58"/>
		
			<line fill="none" stroke="#000000" stroke-width="2.5561" stroke-linecap="round" stroke-linejoin="round" x1="204.76" y1="149.21" x2="201.42" y2="149.21"/>
	</g>
	<path fill="none" stroke="#58595B" stroke-width="2" stroke-linecap="round" stroke-linejoin="round" d="M21.7,51.76v0.33
		c0,3.09,2.51,5.6,5.6,5.6h33.54h33.22c3.28,0,5.93-2.65,5.93-5.93v0"/>
	<polyline fill="none" stroke="#58595B" stroke-width="2" stroke-linecap="round" stroke-linejoin="round" points="60.84,62.92 
		60.84,57.69 60.84,51.76 	"/>
	<path fill="none" stroke="#58595B" stroke-width="2" stroke-linecap="round" stroke-linejoin="round" d="M199.3,51.76L199.3,51.76
		c0,2.55-2.07,4.62-4.62,4.62h-13.87h-13.87c-2.55,0-4.62-2.07-4.62-4.62v0"/>
	
		<line fill="none" stroke="#58595B" stroke-width="2" stroke-linecap="round" stroke-linejoin="round" x1="180.81" y1="62.92" x2="180.81" y2="56.38"/>
	<g>
		
			<line fill="none" stroke="#000000" stroke-width="2" stroke-linecap="round" stroke-linejoin="round" x1="60.23" y1="96.84" x2="60.23" y2="121.87"/>
		<g>
			<polygon points="56.45,119.29 60.23,133.38 64,119.29 			"/>
		</g>
	</g>
	<g>
		
			<line fill="none" stroke="#000000" stroke-width="2" stroke-linecap="round" stroke-linejoin="round" x1="536.97" y1="96.84" x2="536.97" y2="121.87"/>
		<g>
			<polygon points="533.2,119.29 536.97,133.38 540.75,119.29 			"/>
		</g>
	</g>
	<g>
		
			<line fill="none" stroke="#000000" stroke-width="2" stroke-linecap="round" stroke-linejoin="round" x1="89.07" y1="155.89" x2="189.66" y2="155.89"/>
		<g>
			<polygon points="91.64,159.67 77.55,155.89 91.64,152.12 			"/>
		</g>
	</g>
	<g>
		
			<line fill="none" stroke="#000000" stroke-width="2" stroke-linecap="round" stroke-linejoin="round" x1="180.81" y1="96.84" x2="82.91" y2="135.73"/>
		<g>
			<polygon points="83.91,131.27 72.2,139.98 86.69,138.29 			"/>
		</g>
	</g>
	<text transform="matrix(1 0 0 1 438.5368 198.5938)" font-family="'CaskaydiaCoveNFM-Regular'" font-size="21px">mainExpanded.tex</text>
	<text transform="matrix(1 0 0 1 584.7993 161.7249)" font-family="'CaskaydiaCoveNFM-Regular'" font-size="21px">mainExpanded.bbl</text>
	<g>
		<path fill="none" stroke="#000000" stroke-width="2.5561" stroke-linecap="round" stroke-linejoin="round" d="M541.15,137.51
			h-14.2c-1.85,0-3.34,1.5-3.34,3.34v26.73c0,1.85,1.5,3.34,3.34,3.34H547c1.85,0,3.34-1.5,3.34-3.34V146.7L541.15,137.51z"/>
		<polyline fill="none" stroke="#000000" stroke-width="2.5561" stroke-linecap="round" stroke-linejoin="round" points="
			540.32,137.51 540.32,147.54 550.34,147.54 		"/>
		<path fill="none" stroke="#000000" stroke-width="2.5561" stroke-linecap="round" stroke-linejoin="round" d="M531.96,155.89
			v-1.67h10.02v1.67"/>
		<path fill="none" stroke="#000000" stroke-width="2.5561" stroke-linecap="round" stroke-linejoin="round" d="M535.3,164.25h3.34"
			/>
		<path fill="none" stroke="#000000" stroke-width="2.5561" stroke-linecap="round" stroke-linejoin="round" d="M536.97,154.22
			v10.02"/>
	</g>
	<g>
		<g>
			<path fill="none" stroke="#000000" stroke-width="2.1727" stroke-linecap="round" stroke-linejoin="round" d="M559.6,19.76
				h-12.07c-1.57,0-2.84,1.27-2.84,2.84v22.72c0,1.57,1.27,2.84,2.84,2.84h17.04c1.57,0,2.84-1.27,2.84-2.84V27.57L559.6,19.76z"/>
			<polyline fill="none" stroke="#000000" stroke-width="2.1727" stroke-linecap="round" stroke-linejoin="round" points="
				558.89,19.76 558.89,28.28 567.41,28.28 			"/>
			
				<circle fill="none" stroke="#000000" stroke-width="2.1727" stroke-linecap="round" stroke-linejoin="round" cx="553.21" cy="35.38" r="2.84"/>
			<path fill="none" stroke="#000000" stroke-width="2.1727" stroke-linecap="round" stroke-linejoin="round" d="M567.41,41.06
				l-1.55-1.55c-1.11-1.1-2.9-1.1-4,0l-8.65,8.65"/>
		</g>
		<g>
			<path fill="none" stroke="#000000" stroke-width="2.1727" stroke-linecap="round" stroke-linejoin="round" d="M522.62,19.76
				h-12.07c-1.57,0-2.84,1.27-2.84,2.84v22.72c0,1.57,1.27,2.84,2.84,2.84h17.04c1.57,0,2.84-1.27,2.84-2.84V27.57L522.62,19.76z"/>
			<polyline fill="none" stroke="#000000" stroke-width="2.1727" stroke-linecap="round" stroke-linejoin="round" points="
				521.91,19.76 521.91,28.28 530.43,28.28 			"/>
			
				<circle fill="none" stroke="#000000" stroke-width="2.1727" stroke-linecap="round" stroke-linejoin="round" cx="516.23" cy="35.38" r="2.84"/>
			<path fill="none" stroke="#000000" stroke-width="2.1727" stroke-linecap="round" stroke-linejoin="round" d="M530.43,41.06
				l-1.55-1.55c-1.11-1.1-2.9-1.1-4,0l-8.65,8.65"/>
		</g>
		<path fill="none" stroke="#000000" stroke-width="2.5561" stroke-linecap="round" stroke-linejoin="round" d="M527.53,82.61
			l2.51-4.85c0.56-1.1,1.67-1.81,2.91-1.84h17.98c1.85,0,3.34,1.49,3.35,3.34c0,0.28-0.04,0.57-0.11,0.84l-2.57,10.02
			c-0.38,1.48-1.73,2.52-3.26,2.51h-24.14c-1.85,0-3.34-1.5-3.34-3.34V67.57c0-1.85,1.5-3.34,3.34-3.34h6.52
			c1.14-0.01,2.2,0.56,2.82,1.5l1.35,2c0.62,0.94,1.67,1.5,2.79,1.5h9.91c1.85,0,3.34,1.5,3.34,3.34v3.34"/>
	</g>
	<g>
		<path fill="none" stroke="#000000" stroke-width="2.5561" stroke-linecap="round" stroke-linejoin="round" d="M619.42,104.1h-14.2
			c-1.85,0-3.34,1.5-3.34,3.34v26.73c0,1.85,1.5,3.34,3.34,3.34h20.05c1.85,0,3.34-1.5,3.34-3.34v-20.88L619.42,104.1z"/>
		<polyline fill="none" stroke="#000000" stroke-width="2.5561" stroke-linecap="round" stroke-linejoin="round" points="
			618.59,104.1 618.59,114.12 628.61,114.12 		"/>
		
			<line fill="none" stroke="#000000" stroke-width="2.5561" stroke-linecap="round" stroke-linejoin="round" x1="621.93" y1="122.48" x2="608.56" y2="122.48"/>
		
			<line fill="none" stroke="#000000" stroke-width="2.5561" stroke-linecap="round" stroke-linejoin="round" x1="621.93" y1="129.16" x2="608.56" y2="129.16"/>
		
			<line fill="none" stroke="#000000" stroke-width="2.5561" stroke-linecap="round" stroke-linejoin="round" x1="611.91" y1="115.79" x2="608.56" y2="115.79"/>
	</g>
	<path fill="none" stroke="#58595B" stroke-width="2" stroke-linecap="round" stroke-linejoin="round" d="M556.05,51.76
		L556.05,51.76c0,2.55-2.07,4.62-4.62,4.62h-13.87h-13.87c-2.55,0-4.62-2.07-4.62-4.62v0"/>
	
		<line fill="none" stroke="#58595B" stroke-width="2" stroke-linecap="round" stroke-linejoin="round" x1="537.56" y1="62.92" x2="537.56" y2="56.38"/>
	<g>
		
			<line fill="none" stroke="#000000" stroke-width="2" stroke-linecap="round" stroke-linejoin="round" x1="565.98" y1="138.82" x2="593.86" y2="122.48"/>
		<g>
			<polygon points="570.11,140.78 556.05,144.65 566.29,134.26 			"/>
		</g>
	</g>
	<g>
		<line fill="none" stroke="#000000" stroke-width="19" stroke-linejoin="round" x1="325.19" y1="119.82" x2="399.34" y2="119.82"/>
		<g>
			<polygon points="396.24,96.74 396.24,142.91 419.32,119.83 			"/>
		</g>
	</g>
	<path fill="none" stroke="#000000" stroke-width="2" stroke-linecap="round" stroke-linejoin="round" d="M99.99,14.97L99.99,14.97
		c0-3.2,2.59-5.79,5.79-5.79h50.75c3.2,0,5.79,2.59,5.79,5.79v0"/>
	<g>
		
			<line fill="none" stroke="#000000" stroke-width="0.7782" stroke-linecap="round" stroke-linejoin="round" x1="99.99" y1="12.35" x2="99.99" y2="14.85"/>
		<g>
			<polygon points="103.49,14.38 96.49,14.38 99.99,17.88 			"/>
		</g>
	</g>
	<path fill="none" stroke="#000000" stroke-width="1.2913" stroke-linejoin="round" d="M771.11,208.76H18.9
		c-10.08,0-18.25-8.17-18.25-18.25V18.9C0.65,8.82,8.82,0.65,18.9,0.65h752.21c10.08,0,18.25,8.17,18.25,18.25v171.61
		C789.37,200.59,781.19,208.76,771.11,208.76z"/>
</g>
</svg>
