<?xml version="1.0" encoding="utf-8"?>
<svg version="1.2" baseProfile="tiny" id="Layer_1" xmlns="http://www.w3.org/2000/svg" xmlns:xlink="http://www.w3.org/1999/xlink"
	 x="0px" y="0px" viewBox="0 0 790.01 243.49" overflow="visible" xml:space="preserve">
<rect fill="#FFFFFF" width="790.01" height="243.49"/>
<g>
	<g>
		<path d="M19.99,198.59v-8.31c0-0.75-0.28-1.13-0.84-1.13c-0.71,0-1.07,0.49-1.07,1.48v7.96h-1.85v-8.51
			c0-0.62-0.29-0.92-0.86-0.92c-0.7,0-1.05,0.49-1.05,1.48v7.96h-2.17v-10.87h1.93l0.14,1.35h0.16c0.08-1.04,0.7-1.56,1.87-1.56
			c0.46,0,0.84,0.13,1.14,0.39c0.3,0.26,0.51,0.65,0.61,1.17h0.17c0.03-0.42,0.2-0.79,0.51-1.1c0.3-0.31,0.74-0.46,1.32-0.46
			c0.75,0,1.3,0.2,1.64,0.6s0.51,1.06,0.51,1.96v8.51H19.99z"/>
		<path d="M31.7,198.7l-0.1-2.4h-0.22c-0.08,0.83-0.44,1.46-1.06,1.88c-0.63,0.42-1.44,0.63-2.46,0.63c-1.13,0-2.01-0.27-2.64-0.82
			s-0.93-1.32-0.93-2.32c0-1.15,0.43-2.03,1.29-2.64c0.86-0.62,2.07-0.92,3.63-0.92c0.78,0,1.46,0.06,2.05,0.17v-0.5
			c0-0.72-0.25-1.26-0.76-1.59c-0.51-0.34-1.27-0.52-2.27-0.55l-2.6-0.07l0.21-1.93l2.19,0.03c1.8,0.03,3.13,0.42,4,1.16
			c0.87,0.75,1.31,1.84,1.31,3.28v4.53l1.85,0.22v1.74L31.7,198.7z M31.27,193.94c-0.35-0.05-0.7-0.08-1.04-0.09
			s-0.7-0.01-1.05-0.01c-1.89,0-2.83,0.57-2.83,1.72c0,0.48,0.16,0.85,0.49,1.11c0.32,0.26,0.78,0.39,1.38,0.39
			c0.68,0,1.24-0.12,1.7-0.35c0.45-0.23,0.79-0.53,1.02-0.89s0.34-0.73,0.34-1.12V193.94z"/>
		<path d="M37.26,198.59v-1.91h4.14v-7.05h-3.53v-1.91h5.7v8.96h3.34v1.91H37.26z M42.42,186c-0.42,0-0.77-0.15-1.07-0.45
			c-0.3-0.3-0.45-0.65-0.45-1.07c0-0.42,0.15-0.78,0.45-1.08c0.3-0.29,0.65-0.44,1.07-0.44c0.42,0,0.78,0.15,1.08,0.44
			s0.44,0.65,0.44,1.08c0,0.42-0.15,0.77-0.44,1.07C43.2,185.85,42.84,186,42.42,186z"/>
		<path d="M56.33,198.59v-7.08c0-0.66-0.17-1.16-0.51-1.52s-0.82-0.53-1.44-0.53c-1.71,0-2.56,1.01-2.56,3.02v6.11h-2.17v-10.87
			h1.97l0.17,1.97h0.24c0.12-1.45,1.08-2.17,2.87-2.17c1.15,0,2.04,0.35,2.67,1.04s0.94,1.68,0.94,2.95v7.08H56.33z"/>
		<path d="M66.38,198.8c-0.42,0-0.77-0.15-1.07-0.45c-0.3-0.3-0.45-0.65-0.45-1.07c0-0.42,0.15-0.78,0.45-1.08
			c0.3-0.29,0.65-0.44,1.07-0.44c0.42,0,0.78,0.15,1.08,0.44s0.44,0.65,0.44,1.08c0,0.42-0.15,0.77-0.44,1.07
			C67.16,198.65,66.8,198.8,66.38,198.8z"/>
		<path d="M80.65,198.8c-1.65,0-2.84-0.34-3.57-1.03c-0.74-0.68-1.1-1.78-1.1-3.28v-4.86h-2.73v-1.91h2.73v-3.28h2.17v3.28h4.94
			v1.91h-4.94v4.76c0,0.86,0.21,1.49,0.63,1.88c0.42,0.39,1.11,0.58,2.08,0.58c0.34,0,0.7-0.02,1.09-0.06
			c0.38-0.04,0.82-0.09,1.31-0.15l0.25,1.91c-0.48,0.08-0.95,0.14-1.4,0.18C81.65,198.78,81.17,198.8,80.65,198.8z"/>
		<path d="M91.93,198.8c-1.85,0-3.28-0.49-4.29-1.46c-1.01-0.97-1.51-2.38-1.51-4.2c0-1.78,0.43-3.16,1.28-4.14s2.06-1.48,3.62-1.48
			c1.47,0,2.61,0.44,3.41,1.33s1.21,2.18,1.21,3.88c0,0.5-0.02,0.96-0.06,1.39h-7.34c0.19,0.91,0.62,1.6,1.29,2.07
			c0.67,0.47,1.55,0.7,2.65,0.7c0.45,0,0.9-0.03,1.33-0.08s0.88-0.12,1.33-0.21l0.27,1.91c-0.64,0.12-1.23,0.2-1.76,0.24
			S92.34,198.8,91.93,198.8z M88.16,192.46h5.52c0-0.98-0.23-1.73-0.7-2.25s-1.11-0.79-1.93-0.79c-0.84,0-1.51,0.26-2.01,0.79
			S88.25,191.49,88.16,192.46z"/>
		<path d="M98.23,198.59l3.89-5.37l-3.89-5.5h2.46l2.6,3.8l2.6-3.8h2.46l-3.94,5.41l3.94,5.46h-2.46l-2.66-3.77l-2.55,3.77H98.23z"
			/>
	</g>
	<g>
		<path d="M18,233.41c-4.64,0-6.96-2.5-6.96-7.51c0-2.37,0.58-4.21,1.75-5.51c1.17-1.3,2.82-1.95,4.96-1.95
			c0.96,0,1.82,0.16,2.56,0.47c0.75,0.31,1.31,0.75,1.69,1.33l-1.52,1.99c-0.65-0.8-1.56-1.2-2.72-1.2c-1.18,0-2.12,0.42-2.83,1.25
			c-0.71,0.83-1.06,2.01-1.06,3.53c0,3.35,1.49,5.02,4.46,5.02c0.99,0,1.97-0.21,2.93-0.62l0.47,2.5
			C20.57,233.18,19.32,233.41,18,233.41z"/>
		<path d="M28.79,233.41c-1.57,0-2.78-0.49-3.64-1.48s-1.29-2.37-1.29-4.16c0-1.8,0.43-3.19,1.29-4.17
			c0.86-0.98,2.07-1.47,3.64-1.47s2.78,0.49,3.64,1.47c0.86,0.98,1.29,2.37,1.29,4.17c0,1.79-0.43,3.18-1.29,4.16
			C31.57,232.92,30.36,233.41,28.79,233.41z M28.79,230.78c0.67,0,1.19-0.26,1.55-0.79c0.36-0.52,0.54-1.26,0.54-2.22
			c0-0.96-0.18-1.71-0.54-2.22s-0.88-0.78-1.55-0.78c-0.66,0-1.18,0.26-1.54,0.78c-0.37,0.52-0.55,1.26-0.55,2.22
			c0,0.96,0.18,1.7,0.55,2.22C27.61,230.52,28.13,230.78,28.79,230.78z"/>
		<path d="M43.55,233.21v-7.36c0-0.75-0.22-1.13-0.66-1.13c-0.49,0-0.74,0.41-0.74,1.22v7.27h-2.06v-7.57
			c0-0.62-0.22-0.92-0.66-0.92c-0.52,0-0.78,0.41-0.78,1.22v7.27h-2.74v-10.87h2.49l0.14,1.35h0.25c0.15-1.04,0.7-1.56,1.65-1.56
			c0.9,0,1.45,0.52,1.64,1.56h0.25c0.06-0.49,0.25-0.87,0.57-1.14c0.32-0.28,0.74-0.42,1.26-0.42c0.73,0,1.27,0.2,1.6,0.61
			c0.34,0.4,0.51,1.06,0.51,1.96v8.51H43.55z"/>
		<path d="M48.8,237.92v-15.59h2.57l0.17,1.97h0.19c0.13-0.73,0.41-1.28,0.84-1.64c0.43-0.36,1.05-0.54,1.88-0.54
			c1.36,0,2.41,0.49,3.16,1.48c0.75,0.98,1.12,2.38,1.12,4.17c0,1.81-0.37,3.2-1.12,4.17c-0.75,0.97-1.8,1.46-3.14,1.46
			c-0.76,0-1.37-0.18-1.83-0.54s-0.74-0.91-0.85-1.63h-0.23v6.69H48.8z M51.58,227.78c0,1.05,0.16,1.82,0.47,2.3
			s0.86,0.72,1.65,0.72c1.47,0,2.2-1,2.2-3.01c0-0.96-0.19-1.71-0.57-2.24c-0.38-0.53-0.93-0.79-1.63-0.79s-1.23,0.24-1.59,0.73
			S51.58,226.73,51.58,227.78z"/>
		<path d="M67.33,233.41c-1.37,0-2.35-0.38-2.96-1.13c-0.61-0.75-0.91-1.96-0.91-3.61v-8.29h-3.08v-2.55h5.84v10.75
			c0,0.68,0.12,1.18,0.35,1.49c0.24,0.31,0.76,0.46,1.56,0.46c0.6,0,1.36-0.13,2.28-0.39l0.32,2.85c-0.58,0.15-1.14,0.26-1.68,0.33
			S67.94,233.41,67.33,233.41z"/>
		<path d="M73.32,233.21v-2.56h4.02v-5.74h-3.4v-2.56h6.17v8.31h3.22v2.56H73.32z M78.6,220.87c-0.53,0-0.95-0.16-1.28-0.49
			s-0.49-0.76-0.49-1.28s0.16-0.95,0.49-1.28s0.76-0.49,1.28-0.49s0.95,0.16,1.28,0.49s0.49,0.75,0.49,1.28s-0.16,0.95-0.49,1.28
			S79.13,220.87,78.6,220.87z"/>
		<path d="M91.59,233.41c-1.98,0-3.5-0.49-4.58-1.46c-1.08-0.97-1.62-2.37-1.62-4.2c0-1.78,0.49-3.16,1.48-4.14s2.39-1.48,4.21-1.48
			c1.12,0,2.08,0.22,2.89,0.66c0.8,0.44,1.37,1.06,1.71,1.86l-2.01,1.6c-0.63-0.98-1.52-1.48-2.67-1.48c-0.87,0-1.55,0.25-2.04,0.75
			c-0.49,0.5-0.73,1.21-0.73,2.13c0,1.02,0.31,1.79,0.94,2.33c0.62,0.53,1.52,0.8,2.67,0.8c0.49,0,0.98-0.02,1.47-0.07
			c0.49-0.05,0.97-0.11,1.43-0.19l0.29,2.59c-0.55,0.12-1.12,0.21-1.71,0.25S92.15,233.41,91.59,233.41z"/>
		<path d="M104.62,233.31l-0.17-2.4h-0.25c-0.1,0.83-0.44,1.46-1,1.88c-0.56,0.42-1.32,0.62-2.26,0.62c-1.16,0-2.05-0.28-2.7-0.85
			s-0.96-1.37-0.96-2.42c0-1.22,0.42-2.15,1.26-2.8s2.03-0.97,3.58-0.97c0.45,0,0.85,0.02,1.2,0.05s0.69,0.09,1.02,0.16v-0.03
			c0-0.58-0.25-1.01-0.74-1.28c-0.5-0.27-1.23-0.42-2.21-0.45l-2.78-0.07l0.21-2.52l2.37,0.03c1.97,0.03,3.43,0.42,4.39,1.16
			c0.96,0.75,1.44,1.84,1.44,3.28v4.02l1.51,0.23v2.26L104.62,233.31z M104.34,228.87c-0.4-0.08-0.76-0.13-1.08-0.14
			s-0.66-0.02-1.02-0.02c-1.44,0-2.15,0.41-2.15,1.23c0,0.76,0.51,1.14,1.53,1.14c0.59,0,1.08-0.11,1.48-0.32
			c0.4-0.21,0.7-0.49,0.91-0.83C104.22,229.58,104.33,229.23,104.34,228.87z"/>
		<path d="M117.23,233.41c-1.87,0-3.23-0.38-4.06-1.13s-1.25-1.96-1.25-3.61v-3.78h-2.6v-2.55h2.6v-3.28h2.77v3.28h4.82v2.55h-4.82
			v3.52c0,0.83,0.21,1.43,0.64,1.8c0.43,0.38,1.13,0.56,2.11,0.56c0.31,0,0.65-0.02,1.01-0.06c0.36-0.04,0.77-0.09,1.23-0.15
			l0.25,2.59c-0.45,0.08-0.89,0.14-1.32,0.18S117.72,233.41,117.23,233.41z"/>
		<path d="M128.09,233.41c-1.88,0-3.33-0.49-4.36-1.46c-1.03-0.97-1.54-2.37-1.54-4.2c0-1.78,0.44-3.16,1.31-4.14
			c0.87-0.98,2.1-1.48,3.69-1.48c1.55,0,2.75,0.46,3.6,1.36s1.27,2.23,1.27,3.97c0,0.49-0.02,0.96-0.06,1.41h-6.9
			c0.42,1.28,1.5,1.92,3.24,1.92c0.49,0,0.98-0.03,1.46-0.08c0.48-0.05,0.97-0.12,1.47-0.21l0.27,2.62c-0.7,0.12-1.33,0.2-1.91,0.24
			S128.53,233.41,128.09,233.41z M124.96,226.94h4.37c0-0.73-0.19-1.29-0.56-1.68s-0.89-0.58-1.56-0.58c-0.63,0-1.14,0.2-1.52,0.59
			C125.3,225.66,125.06,226.22,124.96,226.94z"/>
		<path d="M138.46,233.41c-1.35,0-2.39-0.49-3.14-1.46c-0.75-0.97-1.12-2.36-1.12-4.17c0-1.8,0.37-3.19,1.12-4.17
			c0.75-0.98,1.8-1.48,3.16-1.48c0.79,0,1.4,0.18,1.81,0.54c0.41,0.36,0.68,0.9,0.8,1.64h0.27v-6.48h2.78v15.38l-2.38,0.1
			l-0.39-2.07h-0.24c-0.11,0.72-0.39,1.27-0.85,1.63S139.22,233.41,138.46,233.41z M141.36,227.78c0-1.05-0.18-1.82-0.53-2.31
			s-0.88-0.73-1.59-0.73c-0.7,0-1.25,0.26-1.63,0.79c-0.38,0.53-0.57,1.28-0.57,2.24c0,2.01,0.73,3.01,2.2,3.01
			c0.79,0,1.34-0.24,1.66-0.72S141.36,228.84,141.36,227.78z"/>
		<path d="M159.46,233.21v-14.56h2.71v12.07h7.28v2.49H159.46z"/>
		<path d="M178.45,233.31l-0.17-2.4h-0.25c-0.1,0.83-0.44,1.46-1,1.88c-0.56,0.42-1.32,0.62-2.26,0.62c-1.16,0-2.05-0.28-2.7-0.85
			s-0.96-1.37-0.96-2.42c0-1.22,0.42-2.15,1.26-2.8s2.03-0.97,3.58-0.97c0.45,0,0.85,0.02,1.2,0.05s0.69,0.09,1.02,0.16v-0.03
			c0-0.58-0.25-1.01-0.74-1.28c-0.5-0.27-1.23-0.42-2.21-0.45l-2.78-0.07l0.21-2.52l2.37,0.03c1.97,0.03,3.43,0.42,4.39,1.16
			c0.96,0.75,1.44,1.84,1.44,3.28v4.02l1.51,0.23v2.26L178.45,233.31z M178.17,228.87c-0.4-0.08-0.76-0.13-1.08-0.14
			s-0.66-0.02-1.02-0.02c-1.44,0-2.15,0.41-2.15,1.23c0,0.76,0.51,1.14,1.53,1.14c0.59,0,1.08-0.11,1.48-0.32
			c0.4-0.21,0.7-0.49,0.91-0.83C178.05,229.58,178.16,229.23,178.17,228.87z"/>
		<path d="M187.4,233.21v-12.07h-4.15v-2.49h11.01v2.49h-4.15v12.07H187.4z"/>
		<path d="M201.92,233.41c-1.88,0-3.33-0.49-4.36-1.46c-1.03-0.97-1.54-2.37-1.54-4.2c0-1.78,0.44-3.16,1.31-4.14
			c0.87-0.98,2.1-1.48,3.69-1.48c1.55,0,2.75,0.46,3.6,1.36s1.27,2.23,1.27,3.97c0,0.49-0.02,0.96-0.06,1.41h-6.9
			c0.42,1.28,1.5,1.92,3.24,1.92c0.49,0,0.98-0.03,1.46-0.08c0.48-0.05,0.97-0.12,1.47-0.21l0.27,2.62c-0.7,0.12-1.33,0.2-1.91,0.24
			S202.36,233.41,201.92,233.41z M198.79,226.94h4.37c0-0.73-0.19-1.29-0.56-1.68s-0.89-0.58-1.56-0.58c-0.63,0-1.14,0.2-1.52,0.59
			C199.13,225.66,198.89,226.22,198.79,226.94z"/>
		<path d="M215.81,233.21l-2.45-4.81l-2.44,4.81h-3.38l4.51-7.21l-4.51-7.35h3.38l2.44,4.89l2.45-4.89h3.38l-4.52,7.35l4.52,7.21
			H215.81z"/>
		<path d="M233.37,237.92v-15.59h2.57l0.17,1.97h0.19c0.13-0.73,0.41-1.28,0.84-1.64c0.43-0.36,1.05-0.54,1.88-0.54
			c1.36,0,2.41,0.49,3.16,1.48c0.75,0.98,1.12,2.38,1.12,4.17c0,1.81-0.37,3.2-1.12,4.17c-0.75,0.97-1.8,1.46-3.14,1.46
			c-0.76,0-1.37-0.18-1.82-0.54c-0.46-0.36-0.74-0.91-0.85-1.63h-0.23v6.69H233.37z M236.15,227.78c0,1.05,0.16,1.82,0.47,2.3
			s0.86,0.72,1.65,0.72c1.47,0,2.21-1,2.21-3.01c0-0.96-0.19-1.71-0.57-2.24c-0.38-0.53-0.93-0.79-1.63-0.79s-1.23,0.24-1.59,0.73
			S236.15,226.73,236.15,227.78z"/>
		<path d="M249.83,228.53v2.3h2.54v2.38h-7.61v-2.38h2.3v-6.11h-1.89v-2.38h4.24l0.32,2.45h0.39c0.11-1.77,1.04-2.66,2.78-2.66
			c1.03,0,1.82,0.38,2.37,1.14c0.55,0.76,0.83,1.85,0.83,3.28h-2.77c0-0.64-0.12-1.1-0.35-1.38c-0.24-0.28-0.61-0.42-1.13-0.42
			c-0.68,0-1.18,0.33-1.52,0.98S249.83,227.32,249.83,228.53z"/>
		<path d="M262.58,233.41c-1.57,0-2.78-0.49-3.64-1.48s-1.29-2.37-1.29-4.16c0-1.8,0.43-3.19,1.29-4.17
			c0.86-0.98,2.08-1.47,3.64-1.47s2.78,0.49,3.64,1.47c0.86,0.98,1.29,2.37,1.29,4.17c0,1.79-0.43,3.18-1.29,4.16
			S264.15,233.41,262.58,233.41z M262.58,230.78c0.67,0,1.19-0.26,1.55-0.79c0.36-0.52,0.54-1.26,0.54-2.22
			c0-0.96-0.18-1.71-0.54-2.22c-0.36-0.52-0.88-0.78-1.55-0.78c-0.66,0-1.18,0.26-1.54,0.78c-0.37,0.52-0.55,1.26-0.55,2.22
			c0,0.96,0.18,1.7,0.55,2.22C261.4,230.52,261.92,230.78,262.58,230.78z"/>
		<path d="M270.58,238.13l-0.1-2.67l2.05-0.13c0.95-0.06,1.64-0.31,2.07-0.75c0.43-0.44,0.64-1.11,0.64-2v-7.67h-3.79v-2.56h6.57
			v9.91c0,1.93-0.45,3.34-1.35,4.23c-0.9,0.89-2.35,1.4-4.34,1.53L270.58,238.13z M276.44,220.87c-0.53,0-0.95-0.16-1.28-0.49
			s-0.49-0.76-0.49-1.28s0.16-0.95,0.49-1.28s0.75-0.49,1.28-0.49s0.95,0.16,1.28,0.49s0.49,0.75,0.49,1.28s-0.16,0.95-0.49,1.28
			S276.97,220.87,276.44,220.87z"/>
		<path d="M288.05,233.41c-1.88,0-3.33-0.49-4.36-1.46c-1.03-0.97-1.54-2.37-1.54-4.2c0-1.78,0.44-3.16,1.31-4.14
			c0.87-0.98,2.1-1.48,3.69-1.48c1.55,0,2.75,0.46,3.6,1.36c0.85,0.91,1.27,2.23,1.27,3.97c0,0.49-0.02,0.96-0.06,1.41h-6.9
			c0.42,1.28,1.5,1.92,3.24,1.92c0.49,0,0.98-0.03,1.46-0.08c0.48-0.05,0.97-0.12,1.47-0.21l0.27,2.62c-0.7,0.12-1.33,0.2-1.91,0.24
			S288.5,233.41,288.05,233.41z M284.92,226.94h4.37c0-0.73-0.19-1.29-0.56-1.68c-0.37-0.39-0.89-0.58-1.56-0.58
			c-0.63,0-1.14,0.2-1.52,0.59C285.26,225.66,285.02,226.22,284.92,226.94z"/>
		<path d="M300.77,233.41c-1.98,0-3.5-0.49-4.58-1.46c-1.08-0.97-1.62-2.37-1.62-4.2c0-1.78,0.49-3.16,1.48-4.14
			s2.39-1.48,4.21-1.48c1.12,0,2.08,0.22,2.89,0.66c0.8,0.44,1.37,1.06,1.71,1.86l-2.01,1.6c-0.63-0.98-1.52-1.48-2.67-1.48
			c-0.87,0-1.55,0.25-2.04,0.75c-0.49,0.5-0.73,1.21-0.73,2.13c0,1.02,0.31,1.79,0.94,2.33c0.62,0.53,1.52,0.8,2.67,0.8
			c0.49,0,0.98-0.02,1.47-0.07c0.49-0.05,0.96-0.11,1.43-0.19l0.29,2.59c-0.55,0.12-1.12,0.21-1.71,0.25
			S301.33,233.41,300.77,233.41z"/>
		<path d="M314.11,233.41c-1.87,0-3.23-0.38-4.06-1.13s-1.25-1.96-1.25-3.61v-3.78h-2.61v-2.55h2.61v-3.28h2.77v3.28h4.82v2.55
			h-4.82v3.52c0,0.83,0.21,1.43,0.64,1.8c0.43,0.38,1.13,0.56,2.11,0.56c0.31,0,0.65-0.02,1.01-0.06c0.36-0.04,0.77-0.09,1.23-0.15
			l0.25,2.59c-0.45,0.08-0.89,0.14-1.32,0.18C315.05,233.39,314.59,233.41,314.11,233.41z"/>
	</g>
	<g>
		<path d="M441.36,233.21v-14.56h9.99v2.49h-7.28v4.13h5.26v2.51h-5.26v5.42H441.36z"/>
		<path d="M459.76,233.41c-1.37,0-2.35-0.38-2.96-1.13c-0.61-0.75-0.91-1.96-0.91-3.61v-8.29h-3.08v-2.55h5.84v10.75
			c0,0.68,0.12,1.18,0.35,1.49c0.24,0.31,0.76,0.46,1.56,0.46c0.6,0,1.36-0.13,2.28-0.39l0.32,2.85c-0.58,0.15-1.14,0.26-1.68,0.33
			S460.38,233.41,459.76,233.41z"/>
		<path d="M472.45,233.31l-0.17-2.4h-0.25c-0.1,0.83-0.44,1.46-1,1.88c-0.56,0.42-1.32,0.62-2.26,0.62c-1.16,0-2.05-0.28-2.7-0.85
			s-0.96-1.37-0.96-2.42c0-1.22,0.42-2.15,1.26-2.8s2.03-0.97,3.58-0.97c0.45,0,0.85,0.02,1.2,0.05s0.69,0.09,1.02,0.16v-0.03
			c0-0.58-0.25-1.01-0.74-1.28c-0.5-0.27-1.23-0.42-2.21-0.45l-2.78-0.07l0.21-2.52l2.37,0.03c1.97,0.03,3.43,0.42,4.39,1.16
			c0.96,0.75,1.44,1.84,1.44,3.28v4.02l1.51,0.23v2.26L472.45,233.31z M472.17,228.87c-0.4-0.08-0.76-0.13-1.08-0.14
			s-0.66-0.02-1.02-0.02c-1.44,0-2.15,0.41-2.15,1.23c0,0.76,0.51,1.14,1.53,1.14c0.59,0,1.08-0.11,1.48-0.32
			c0.4-0.21,0.7-0.49,0.91-0.83C472.05,229.58,472.16,229.23,472.17,228.87z"/>
		<path d="M485.06,233.41c-1.87,0-3.23-0.38-4.06-1.13s-1.25-1.96-1.25-3.61v-3.78h-2.6v-2.55h2.6v-3.28h2.77v3.28h4.82v2.55h-4.82
			v3.52c0,0.83,0.21,1.43,0.64,1.8c0.43,0.38,1.13,0.56,2.11,0.56c0.31,0,0.65-0.02,1.01-0.06c0.36-0.04,0.77-0.09,1.23-0.15
			l0.25,2.59c-0.45,0.08-0.89,0.14-1.32,0.18S485.54,233.41,485.06,233.41z"/>
		<path d="M497.36,233.41c-1.87,0-3.23-0.38-4.06-1.13s-1.25-1.96-1.25-3.61v-3.78h-2.6v-2.55h2.6v-3.28h2.77v3.28h4.82v2.55h-4.82
			v3.52c0,0.83,0.21,1.43,0.64,1.8c0.43,0.38,1.13,0.56,2.11,0.56c0.31,0,0.65-0.02,1.01-0.06c0.36-0.04,0.77-0.09,1.22-0.15
			l0.25,2.59c-0.45,0.08-0.89,0.14-1.32,0.18C498.3,233.39,497.85,233.41,497.36,233.41z"/>
		<path d="M508.22,233.41c-1.88,0-3.33-0.49-4.36-1.46c-1.03-0.97-1.54-2.37-1.54-4.2c0-1.78,0.44-3.16,1.31-4.14
			c0.87-0.98,2.1-1.48,3.69-1.48c1.55,0,2.75,0.46,3.6,1.36s1.27,2.23,1.27,3.97c0,0.49-0.02,0.96-0.06,1.41h-6.9
			c0.42,1.28,1.5,1.92,3.24,1.92c0.49,0,0.98-0.03,1.46-0.08c0.48-0.05,0.97-0.12,1.47-0.21l0.27,2.62c-0.7,0.12-1.33,0.2-1.91,0.24
			S508.67,233.41,508.22,233.41z M505.09,226.94h4.37c0-0.73-0.19-1.29-0.56-1.68c-0.37-0.39-0.89-0.58-1.56-0.58
			c-0.63,0-1.14,0.2-1.52,0.59C505.43,225.66,505.19,226.22,505.09,226.94z"/>
		<path d="M521.49,233.21v-6.39c0-0.66-0.14-1.16-0.41-1.52c-0.27-0.36-0.65-0.53-1.15-0.53c-1.39,0-2.09,1-2.09,3.01v5.42h-2.78
			v-10.87h2.48l0.26,1.97h0.31c0.1-0.73,0.35-1.28,0.75-1.64c0.4-0.36,1-0.54,1.8-0.54c1.15,0,2.04,0.35,2.67,1.05
			s0.94,1.68,0.94,2.95v7.08H521.49z"/>
		<path d="M532.83,233.41c-1.88,0-3.33-0.49-4.36-1.46c-1.03-0.97-1.54-2.37-1.54-4.2c0-1.78,0.44-3.16,1.31-4.14
			c0.87-0.98,2.1-1.48,3.69-1.48c1.55,0,2.75,0.46,3.6,1.36s1.27,2.23,1.27,3.97c0,0.49-0.02,0.96-0.06,1.41h-6.9
			c0.42,1.28,1.5,1.92,3.24,1.92c0.49,0,0.98-0.03,1.46-0.08c0.48-0.05,0.97-0.12,1.47-0.21l0.27,2.62c-0.7,0.12-1.33,0.2-1.91,0.24
			S533.28,233.41,532.83,233.41z M529.7,226.94h4.37c0-0.73-0.19-1.29-0.56-1.68c-0.37-0.39-0.89-0.58-1.56-0.58
			c-0.63,0-1.14,0.2-1.52,0.59C530.04,225.66,529.8,226.22,529.7,226.94z"/>
		<path d="M543.2,233.41c-1.35,0-2.39-0.49-3.14-1.46c-0.75-0.97-1.12-2.36-1.12-4.17c0-1.8,0.38-3.19,1.12-4.17
			c0.75-0.98,1.8-1.48,3.16-1.48c0.79,0,1.4,0.18,1.81,0.54c0.41,0.36,0.68,0.9,0.8,1.64h0.27v-6.48h2.78v15.38l-2.38,0.1
			l-0.39-2.07h-0.24c-0.11,0.72-0.39,1.27-0.85,1.63S543.96,233.41,543.2,233.41z M546.1,227.78c0-1.05-0.18-1.82-0.53-2.31
			c-0.35-0.49-0.88-0.73-1.59-0.73c-0.7,0-1.25,0.26-1.63,0.79c-0.38,0.53-0.57,1.28-0.57,2.24c0,2.01,0.73,3.01,2.2,3.01
			c0.79,0,1.34-0.24,1.66-0.72C545.94,229.6,546.1,228.84,546.1,227.78z"/>
		<path d="M564.2,233.21v-14.56h2.71v12.07h7.28v2.49H564.2z"/>
		<path d="M583.19,233.31l-0.17-2.4h-0.25c-0.1,0.83-0.44,1.46-1,1.88c-0.56,0.42-1.32,0.62-2.26,0.62c-1.16,0-2.05-0.28-2.7-0.85
			s-0.96-1.37-0.96-2.42c0-1.22,0.42-2.15,1.26-2.8s2.03-0.97,3.58-0.97c0.45,0,0.85,0.02,1.21,0.05c0.35,0.03,0.69,0.09,1.02,0.16
			v-0.03c0-0.58-0.25-1.01-0.74-1.28c-0.5-0.27-1.23-0.42-2.21-0.45l-2.78-0.07l0.21-2.52l2.37,0.03c1.97,0.03,3.43,0.42,4.39,1.16
			c0.96,0.75,1.44,1.84,1.44,3.28v4.02l1.51,0.23v2.26L583.19,233.31z M582.91,228.87c-0.4-0.08-0.76-0.13-1.08-0.14
			s-0.66-0.02-1.01-0.02c-1.44,0-2.15,0.41-2.15,1.23c0,0.76,0.51,1.14,1.53,1.14c0.59,0,1.08-0.11,1.48-0.32
			c0.4-0.21,0.7-0.49,0.91-0.83C582.79,229.58,582.9,229.23,582.91,228.87z"/>
		<path d="M592.14,233.21v-12.07h-4.15v-2.49H599v2.49h-4.15v12.07H592.14z"/>
		<path d="M606.66,233.41c-1.88,0-3.33-0.49-4.36-1.46c-1.03-0.97-1.54-2.37-1.54-4.2c0-1.78,0.44-3.16,1.31-4.14
			c0.87-0.98,2.1-1.48,3.69-1.48c1.55,0,2.75,0.46,3.6,1.36s1.27,2.23,1.27,3.97c0,0.49-0.02,0.96-0.06,1.41h-6.9
			c0.42,1.28,1.5,1.92,3.24,1.92c0.49,0,0.98-0.03,1.46-0.08c0.48-0.05,0.97-0.12,1.47-0.21l0.27,2.62c-0.7,0.12-1.33,0.2-1.91,0.24
			S607.1,233.41,606.66,233.41z M603.53,226.94h4.37c0-0.73-0.19-1.29-0.56-1.68c-0.37-0.39-0.89-0.58-1.56-0.58
			c-0.63,0-1.14,0.2-1.52,0.59C603.87,225.66,603.63,226.22,603.53,226.94z"/>
		<path d="M620.55,233.21l-2.45-4.81l-2.44,4.81h-3.38l4.51-7.21l-4.51-7.35h3.38l2.44,4.89l2.45-4.89h3.38l-4.52,7.35l4.52,7.21
			H620.55z"/>
		<path d="M638.11,237.92v-15.59h2.57l0.17,1.97h0.2c0.13-0.73,0.41-1.28,0.84-1.64c0.43-0.36,1.05-0.54,1.88-0.54
			c1.36,0,2.41,0.49,3.16,1.48c0.75,0.98,1.12,2.38,1.12,4.17c0,1.81-0.37,3.2-1.12,4.17c-0.75,0.97-1.8,1.46-3.14,1.46
			c-0.76,0-1.37-0.18-1.82-0.54c-0.46-0.36-0.74-0.91-0.85-1.63h-0.23v6.69H638.11z M640.89,227.78c0,1.05,0.16,1.82,0.47,2.3
			s0.87,0.72,1.65,0.72c1.47,0,2.21-1,2.21-3.01c0-0.96-0.19-1.71-0.57-2.24c-0.38-0.53-0.93-0.79-1.63-0.79
			c-0.7,0-1.23,0.24-1.59,0.73S640.89,226.73,640.89,227.78z"/>
		<path d="M654.58,228.53v2.3h2.54v2.38h-7.61v-2.38h2.3v-6.11h-1.89v-2.38h4.24l0.32,2.45h0.39c0.11-1.77,1.04-2.66,2.78-2.66
			c1.03,0,1.82,0.38,2.37,1.14c0.55,0.76,0.83,1.85,0.83,3.28h-2.77c0-0.64-0.12-1.1-0.35-1.38c-0.24-0.28-0.61-0.42-1.13-0.42
			c-0.68,0-1.18,0.33-1.52,0.98S654.58,227.32,654.58,228.53z"/>
		<path d="M667.32,233.41c-1.57,0-2.78-0.49-3.64-1.48s-1.29-2.37-1.29-4.16c0-1.8,0.43-3.19,1.29-4.17
			c0.86-0.98,2.08-1.47,3.64-1.47s2.78,0.49,3.64,1.47c0.86,0.98,1.29,2.37,1.29,4.17c0,1.79-0.43,3.18-1.29,4.16
			S668.89,233.41,667.32,233.41z M667.32,230.78c0.67,0,1.19-0.26,1.55-0.79c0.36-0.52,0.54-1.26,0.54-2.22
			c0-0.96-0.18-1.71-0.54-2.22c-0.36-0.52-0.88-0.78-1.55-0.78c-0.66,0-1.18,0.26-1.54,0.78c-0.37,0.52-0.55,1.26-0.55,2.22
			c0,0.96,0.18,1.7,0.55,2.22C666.14,230.52,666.66,230.78,667.32,230.78z"/>
		<path d="M675.32,238.13l-0.1-2.67l2.05-0.13c0.95-0.06,1.64-0.31,2.07-0.75c0.43-0.44,0.64-1.11,0.64-2v-7.67h-3.79v-2.56h6.57
			v9.91c0,1.93-0.45,3.34-1.35,4.23c-0.9,0.89-2.35,1.4-4.34,1.53L675.32,238.13z M681.19,220.87c-0.53,0-0.95-0.16-1.28-0.49
			s-0.49-0.76-0.49-1.28s0.16-0.95,0.49-1.28s0.75-0.49,1.28-0.49s0.95,0.16,1.28,0.49s0.49,0.75,0.49,1.28s-0.16,0.95-0.49,1.28
			S681.71,220.87,681.19,220.87z"/>
		<path d="M692.79,233.41c-1.88,0-3.33-0.49-4.36-1.46c-1.03-0.97-1.54-2.37-1.54-4.2c0-1.78,0.44-3.16,1.31-4.14
			c0.87-0.98,2.1-1.48,3.69-1.48c1.55,0,2.75,0.46,3.6,1.36c0.85,0.91,1.27,2.23,1.27,3.97c0,0.49-0.02,0.96-0.06,1.41h-6.9
			c0.42,1.28,1.5,1.92,3.24,1.92c0.49,0,0.98-0.03,1.46-0.08c0.48-0.05,0.97-0.12,1.47-0.21l0.27,2.62c-0.7,0.12-1.33,0.2-1.91,0.24
			S693.24,233.41,692.79,233.41z M689.67,226.94h4.37c0-0.73-0.19-1.29-0.56-1.68c-0.37-0.39-0.89-0.58-1.56-0.58
			c-0.63,0-1.14,0.2-1.52,0.59C690,225.66,689.76,226.22,689.67,226.94z"/>
		<path d="M705.51,233.41c-1.98,0-3.5-0.49-4.58-1.46c-1.08-0.97-1.62-2.37-1.62-4.2c0-1.78,0.49-3.16,1.48-4.14
			s2.39-1.48,4.21-1.48c1.12,0,2.08,0.22,2.89,0.66c0.8,0.44,1.37,1.06,1.71,1.86l-2.01,1.6c-0.63-0.98-1.52-1.48-2.67-1.48
			c-0.87,0-1.55,0.25-2.04,0.75c-0.49,0.5-0.73,1.21-0.73,2.13c0,1.02,0.31,1.79,0.94,2.33c0.62,0.53,1.52,0.8,2.67,0.8
			c0.49,0,0.98-0.02,1.47-0.07c0.49-0.05,0.96-0.11,1.43-0.19l0.29,2.59c-0.55,0.12-1.12,0.21-1.71,0.25
			S706.07,233.41,705.51,233.41z"/>
		<path d="M718.85,233.41c-1.87,0-3.23-0.38-4.06-1.13s-1.25-1.96-1.25-3.61v-3.78h-2.61v-2.55h2.61v-3.28h2.77v3.28h4.82v2.55
			h-4.82v3.52c0,0.83,0.21,1.43,0.64,1.8c0.43,0.38,1.13,0.56,2.11,0.56c0.31,0,0.65-0.02,1.01-0.06c0.36-0.04,0.77-0.09,1.23-0.15
			l0.25,2.59c-0.45,0.08-0.89,0.14-1.32,0.18C719.79,233.39,719.33,233.41,718.85,233.41z"/>
	</g>
	<g>
		<path d="M145.01,198.8c-0.49,0-0.98-0.02-1.46-0.06c-0.48-0.04-0.96-0.09-1.46-0.15v-15.38h2.17v6.48h0.21
			c0.1-1.45,0.99-2.17,2.67-2.17c1.45,0,2.57,0.43,3.36,1.28s1.19,2.07,1.19,3.64c0,2.02-0.58,3.58-1.75,4.69
			C148.78,198.24,147.13,198.8,145.01,198.8z M144.27,192.48v4.44c0.19,0.01,0.39,0.02,0.58,0.03c0.2,0,0.39,0.01,0.58,0.01
			c1.31,0,2.32-0.39,3.03-1.18s1.07-1.9,1.07-3.33c0-0.98-0.22-1.74-0.65-2.28c-0.43-0.53-1.05-0.8-1.85-0.8
			C145.19,189.37,144.27,190.4,144.27,192.48z"/>
		<path d="M154.37,198.59v-1.91h4.14v-7.05h-3.53v-1.91h5.7v8.96h3.34v1.91H154.37z M159.53,186c-0.42,0-0.77-0.15-1.07-0.45
			c-0.3-0.3-0.45-0.65-0.45-1.07c0-0.42,0.15-0.78,0.45-1.08c0.3-0.29,0.65-0.44,1.07-0.44c0.42,0,0.78,0.15,1.08,0.44
			s0.44,0.65,0.44,1.08c0,0.42-0.15,0.77-0.44,1.07C160.31,185.85,159.95,186,159.53,186z"/>
		<path d="M169.62,198.8c-0.49,0-0.98-0.02-1.46-0.06c-0.48-0.04-0.96-0.09-1.46-0.15v-15.38h2.17v6.48h0.21
			c0.1-1.45,0.99-2.17,2.67-2.17c1.45,0,2.57,0.43,3.36,1.28s1.19,2.07,1.19,3.64c0,2.02-0.58,3.58-1.75,4.69
			C173.39,198.24,171.74,198.8,169.62,198.8z M168.88,192.48v4.44c0.19,0.01,0.39,0.02,0.58,0.03c0.2,0,0.39,0.01,0.58,0.01
			c1.31,0,2.32-0.39,3.03-1.18s1.07-1.9,1.07-3.33c0-0.98-0.22-1.74-0.65-2.28c-0.43-0.53-1.05-0.8-1.85-0.8
			C169.8,189.37,168.88,190.4,168.88,192.48z"/>
		<path d="M181.46,198.59v-6.56h-3.42v-1.91h3.42v-1.48c0-3.76,1.72-5.64,5.15-5.64c0.78,0,1.53,0.07,2.26,0.21l-0.23,1.89
			c-0.43-0.05-0.81-0.09-1.14-0.11s-0.65-0.03-0.95-0.03c-1.94,0-2.91,1.2-2.91,3.59v1.58h4.45v1.91h-4.45v6.56H181.46z"/>
		<path d="M191.28,198.59v-1.91h4.14v-7.05h-3.53v-1.91h5.7v8.96h3.34v1.91H191.28z M196.44,186c-0.42,0-0.77-0.15-1.07-0.45
			c-0.3-0.3-0.45-0.65-0.45-1.07c0-0.42,0.15-0.78,0.45-1.08c0.3-0.29,0.65-0.44,1.07-0.44c0.42,0,0.78,0.15,1.08,0.44
			s0.44,0.65,0.44,1.08c0,0.42-0.15,0.77-0.44,1.07C197.22,185.85,196.86,186,196.44,186z"/>
		<path d="M209.72,198.8c-1.26,0-2.17-0.34-2.73-1.03s-0.84-1.78-0.84-3.28v-9.37h-3.2v-1.91h5.37v11.18c0,0.57,0.05,1.04,0.16,1.41
			s0.32,0.63,0.64,0.8c0.32,0.17,0.79,0.26,1.41,0.26c0.57,0,1.29-0.13,2.17-0.39l0.25,1.91c-0.55,0.15-1.09,0.26-1.59,0.33
			S210.31,198.8,209.72,198.8z"/>
		<path d="M221.35,198.8c-1.85,0-3.28-0.49-4.29-1.46c-1.01-0.97-1.51-2.38-1.51-4.2c0-1.78,0.43-3.16,1.28-4.14
			s2.06-1.48,3.62-1.48c1.47,0,2.61,0.44,3.41,1.33s1.21,2.18,1.21,3.88c0,0.5-0.02,0.96-0.06,1.39h-7.34
			c0.19,0.91,0.62,1.6,1.29,2.07c0.67,0.47,1.55,0.7,2.65,0.7c0.45,0,0.9-0.03,1.33-0.08s0.88-0.12,1.33-0.21l0.27,1.91
			c-0.64,0.12-1.23,0.2-1.76,0.24S221.76,198.8,221.35,198.8z M217.57,192.46h5.52c0-0.98-0.23-1.73-0.7-2.25s-1.11-0.79-1.93-0.79
			c-0.84,0-1.51,0.26-2.01,0.79S217.66,191.49,217.57,192.46z"/>
		<path d="M232.71,198.8c-0.42,0-0.77-0.15-1.07-0.45c-0.3-0.3-0.45-0.65-0.45-1.07c0-0.42,0.15-0.78,0.45-1.08
			c0.3-0.29,0.65-0.44,1.07-0.44c0.42,0,0.78,0.15,1.08,0.44s0.44,0.65,0.44,1.08c0,0.42-0.15,0.77-0.44,1.07
			C233.49,198.65,233.13,198.8,232.71,198.8z"/>
		<path d="M243.44,198.8c-0.49,0-0.98-0.02-1.46-0.06c-0.48-0.04-0.96-0.09-1.46-0.15v-15.38h2.17v6.48h0.21
			c0.1-1.45,0.99-2.17,2.67-2.17c1.45,0,2.57,0.43,3.36,1.28s1.19,2.07,1.19,3.64c0,2.02-0.58,3.58-1.75,4.69
			C247.21,198.24,245.57,198.8,243.44,198.8z M242.71,192.48v4.44c0.19,0.01,0.39,0.02,0.58,0.03c0.2,0,0.39,0.01,0.58,0.01
			c1.31,0,2.32-0.39,3.03-1.18s1.07-1.9,1.07-3.33c0-0.98-0.22-1.74-0.65-2.28c-0.43-0.53-1.05-0.8-1.85-0.8
			C243.63,189.37,242.71,190.4,242.71,192.48z"/>
		<path d="M252.81,198.59v-1.91h4.14v-7.05h-3.53v-1.91h5.7v8.96h3.34v1.91H252.81z M257.96,186c-0.42,0-0.77-0.15-1.07-0.45
			c-0.3-0.3-0.45-0.65-0.45-1.07c0-0.42,0.15-0.78,0.45-1.08c0.3-0.29,0.65-0.44,1.07-0.44c0.42,0,0.78,0.15,1.08,0.44
			s0.44,0.65,0.44,1.08c0,0.42-0.15,0.77-0.44,1.07C258.75,185.85,258.39,186,257.96,186z"/>
		<path d="M268.05,198.8c-0.49,0-0.98-0.02-1.46-0.06c-0.48-0.04-0.96-0.09-1.46-0.15v-15.38h2.17v6.48h0.21
			c0.1-1.45,0.99-2.17,2.67-2.17c1.45,0,2.57,0.43,3.36,1.28s1.19,2.07,1.19,3.64c0,2.02-0.58,3.58-1.75,4.69
			C271.82,198.24,270.18,198.8,268.05,198.8z M267.31,192.48v4.44c0.19,0.01,0.39,0.02,0.58,0.03c0.2,0,0.39,0.01,0.58,0.01
			c1.31,0,2.32-0.39,3.03-1.18s1.07-1.9,1.07-3.33c0-0.98-0.22-1.74-0.65-2.28c-0.43-0.53-1.05-0.8-1.85-0.8
			C268.24,189.37,267.31,190.4,267.31,192.48z"/>
	</g>
	<g>
		<path d="M297.39,92.19h-2.52L298,74.38h2.1l-0.08,2.82h0.2c0.38-0.98,0.98-1.73,1.8-2.26s1.8-0.8,2.95-0.8
			c1.02,0,1.82,0.33,2.38,0.98s0.85,1.58,0.85,2.77c0,1.3-0.22,2.51-0.67,3.62s-1.08,2.08-1.89,2.91s-1.76,1.47-2.85,1.93
			s-2.28,0.69-3.56,0.69c-0.3,0-0.6-0.01-0.91-0.02L297.39,92.19z M298.71,84.79c0.25,0.02,0.51,0.02,0.77,0.02
			c1.18,0,2.24-0.28,3.18-0.84s1.68-1.33,2.22-2.3s0.81-2.07,0.81-3.3c0-0.63-0.14-1.12-0.43-1.47s-0.7-0.52-1.23-0.52
			c-0.62,0-1.26,0.19-1.89,0.57s-1.21,0.97-1.73,1.78s-0.91,1.85-1.18,3.13L298.71,84.79z"/>
		<path d="M309.04,92.33L308,90.28c1.41-0.62,2.68-1.3,3.82-2.05s2.16-1.58,3.06-2.5c-1.81-2.88-3.37-6.67-4.66-11.36l2.59-0.23
			c0.98,4.03,2.24,7.21,3.76,9.55c0.88-1.24,1.62-2.63,2.2-4.17s1.04-3.25,1.37-5.14h2.51c-0.59,3.04-1.45,5.69-2.59,7.95
			s-2.61,4.21-4.41,5.83S311.64,91.18,309.04,92.33z"/>
		<path d="M331.19,87.04c-1.3,0-2.25-0.3-2.87-0.9s-0.92-1.53-0.92-2.78c0-0.55,0.11-1.26,0.34-2.12l1.82-7.09
			c0.16-0.6,0.23-1.11,0.23-1.51c0-0.31-0.05-0.57-0.14-0.77c-0.22-0.45-0.85-0.68-1.9-0.68c-0.27,0-0.54,0.02-0.81,0.06
			s-0.55,0.12-0.83,0.24l-0.36-2.13c0.39-0.11,0.79-0.2,1.18-0.26s0.8-0.1,1.2-0.1c1.81,0,3.04,0.43,3.69,1.3
			c0.37,0.5,0.55,1.16,0.55,1.97c0,0.59-0.1,1.27-0.29,2.03l-1.82,6.95c-0.23,0.88-0.35,1.55-0.35,2.02c0,1.04,0.58,1.56,1.73,1.56
			c0.48,0,0.89-0.06,1.25-0.18s0.79-0.31,1.29-0.59l0.81,1.89c-0.55,0.31-1.12,0.57-1.73,0.79S331.97,87.04,331.19,87.04z"/>
		<path d="M341.2,87.05c-1.06,0-1.88-0.3-2.46-0.91s-0.87-1.47-0.87-2.58c0-1.41,0.3-2.68,0.9-3.83s1.44-2.12,2.51-2.94
			s2.34-1.44,3.79-1.88s3.02-0.66,4.71-0.66h0.23l-1.55,8.82c-0.04,0.21-0.06,0.41-0.06,0.59c0,0.33,0.07,0.59,0.21,0.77
			c0.2,0.28,0.65,0.42,1.34,0.42h0.48l-0.35,2.05h-0.83c-1.15,0-1.94-0.23-2.38-0.69c-0.35-0.38-0.53-0.96-0.53-1.77
			c0-0.19,0.01-0.39,0.02-0.6h-0.3c-0.48,1.02-1.13,1.8-1.97,2.36S342.28,87.05,341.2,87.05z M341.96,84.82
			c1.12,0,2.11-0.51,2.94-1.52s1.42-2.45,1.76-4.31l0.43-2.39c-1.28,0.2-2.43,0.6-3.44,1.22s-1.81,1.4-2.4,2.33
			s-0.88,1.97-0.88,3.11c0,0.5,0.14,0.88,0.42,1.15S341.46,84.82,341.96,84.82z"/>
		<path d="M358.8,87.04c-1.44,0-2.49-0.31-3.17-0.92s-1.01-1.57-1.01-2.87c0-0.48,0.04-0.96,0.11-1.42s0.18-1.1,0.33-1.92l0.59-3.35
			h-2.91l0.39-2.18h2.91l0.66-3.75h2.52l-0.66,3.75h5.52l-0.39,2.18h-5.52l-0.59,3.35c-0.13,0.78-0.24,1.38-0.32,1.8
			c-0.09,0.42-0.13,0.86-0.13,1.3c0,1.2,0.71,1.79,2.13,1.79c0.57,0,1.07-0.05,1.5-0.14s0.94-0.26,1.54-0.5l0.46,2
			c-0.56,0.24-1.16,0.45-1.79,0.62S359.61,87.04,358.8,87.04z"/>
		<path d="M372.14,84.81c0.62,0,1.29-0.1,2-0.29s1.39-0.47,2.05-0.82l0.81,2c-0.77,0.42-1.59,0.75-2.46,0.98s-1.71,0.35-2.51,0.35
			c-1.61,0-2.87-0.42-3.77-1.27s-1.35-2.02-1.35-3.53c0-1.62,0.31-3.04,0.92-4.25s1.47-2.15,2.57-2.83s2.39-1.01,3.86-1.01
			c1.16,0,2.06,0.29,2.7,0.87s0.97,1.38,0.97,2.41c0,1.51-0.76,2.7-2.29,3.59s-3.66,1.36-6.39,1.44c0.07,0.74,0.36,1.32,0.87,1.73
			S371.29,84.81,372.14,84.81z M369.36,80.57c1.91-0.08,3.4-0.38,4.46-0.9s1.59-1.22,1.59-2.09c0-0.38-0.13-0.67-0.39-0.88
			s-0.62-0.32-1.1-0.32c-1.18,0-2.17,0.38-2.98,1.14S369.61,79.29,369.36,80.57z"/>
		<path d="M381.39,87.28l-1.59-1.76l5.32-5.07l-0.15-2.23c-0.05-0.65-0.2-1.12-0.46-1.41s-0.58-0.44-0.96-0.44
			c-0.31,0-0.61,0.03-0.9,0.09s-0.59,0.16-0.91,0.3l-0.6-2.04c1.08-0.38,2-0.57,2.75-0.57c0.93,0,1.68,0.28,2.26,0.84
			s0.9,1.49,0.99,2.78l0.04,0.49l3.75-4.35l1.71,1.76l-5.3,5.11l0.15,2.18c0.05,0.65,0.2,1.12,0.45,1.41s0.57,0.44,0.97,0.44
			c0.66,0,1.33-0.16,2.03-0.47l0.63,2.04c-1.01,0.44-2.01,0.66-3,0.66c-0.94,0-1.69-0.28-2.26-0.84s-0.9-1.49-0.98-2.78l-0.04-0.46
			L381.39,87.28z"/>
		<path d="M395.83,92.19h-2.52l3.13-17.81h2.1l-0.08,2.82h0.2c0.38-0.98,0.98-1.73,1.8-2.26s1.8-0.8,2.95-0.8
			c1.02,0,1.82,0.33,2.38,0.98s0.85,1.58,0.85,2.77c0,1.3-0.22,2.51-0.67,3.62s-1.08,2.08-1.89,2.91s-1.76,1.47-2.85,1.93
			s-2.28,0.69-3.56,0.69c-0.3,0-0.6-0.01-0.91-0.02L395.83,92.19z M397.14,84.79c0.25,0.02,0.51,0.02,0.77,0.02
			c1.18,0,2.24-0.28,3.18-0.84s1.68-1.33,2.22-2.3s0.81-2.07,0.81-3.3c0-0.63-0.14-1.12-0.43-1.47s-0.7-0.52-1.23-0.52
			c-0.62,0-1.26,0.19-1.89,0.57s-1.21,0.97-1.73,1.78s-0.91,1.85-1.18,3.13L397.14,84.79z"/>
		<path d="M411.51,87.05c-1.06,0-1.88-0.3-2.46-0.91s-0.87-1.47-0.87-2.58c0-1.41,0.3-2.68,0.9-3.83s1.44-2.12,2.51-2.94
			s2.34-1.44,3.79-1.88s3.02-0.66,4.71-0.66h0.23l-1.55,8.82c-0.04,0.21-0.06,0.41-0.06,0.59c0,0.33,0.07,0.59,0.21,0.77
			c0.2,0.28,0.65,0.42,1.34,0.42h0.48l-0.35,2.05h-0.83c-1.15,0-1.94-0.23-2.38-0.69c-0.35-0.38-0.53-0.96-0.53-1.77
			c0-0.19,0.01-0.39,0.02-0.6h-0.3c-0.48,1.02-1.13,1.8-1.97,2.36S412.6,87.05,411.51,87.05z M412.27,84.82
			c1.12,0,2.11-0.51,2.94-1.52s1.42-2.45,1.76-4.31l0.43-2.39c-1.28,0.2-2.43,0.6-3.44,1.22s-1.81,1.4-2.4,2.33
			s-0.88,1.97-0.88,3.11c0,0.5,0.14,0.88,0.42,1.15S411.77,84.82,412.27,84.82z"/>
		<path d="M422.39,86.8l2.19-12.42h2.07l-0.08,2.82h0.23c0.25-0.98,0.75-1.73,1.49-2.26s1.63-0.8,2.67-0.8
			c2.08,0,3.12,1.02,3.12,3.06c0,0.43-0.05,0.91-0.14,1.43l-1.44,8.17h-2.52l1.44-8.26c0.05-0.25,0.07-0.48,0.07-0.69
			c0-0.98-0.49-1.48-1.46-1.48c-0.62,0-1.21,0.18-1.74,0.53s-1.02,0.95-1.44,1.78s-0.79,1.95-1.1,3.35l-0.84,4.77H422.39z"/>
		<path d="M439.69,87.05c-1.08,0-1.91-0.3-2.5-0.91s-0.88-1.47-0.88-2.58c0-1.69,0.41-3.18,1.24-4.48s1.96-2.36,3.41-3.18
			s3.11-1.36,4.99-1.61l0.27-1.51c0.04-0.23,0.06-0.45,0.06-0.63c0-0.29-0.05-0.52-0.15-0.68c-0.17-0.27-0.5-0.41-0.97-0.41
			c-0.2,0-0.39,0.01-0.58,0.03s-0.38,0.05-0.58,0.1l-0.27-2.02c0.3-0.07,0.59-0.12,0.89-0.15s0.59-0.04,0.89-0.04
			c1.36,0,2.29,0.33,2.8,0.98c0.33,0.43,0.49,1.04,0.49,1.82c0,0.41-0.04,0.86-0.13,1.35l-1.76,9.95c-0.03,0.2-0.05,0.38-0.05,0.55
			c0,0.83,0.44,1.24,1.31,1.24h0.71l-0.36,2.05h-0.89c-1.08,0-1.84-0.25-2.29-0.75c-0.38-0.41-0.56-1.01-0.56-1.8
			c0-0.16,0.01-0.34,0.02-0.52h-0.3c-0.45,0.98-1.08,1.75-1.91,2.33S440.8,87.05,439.69,87.05z M445.06,79.16l0.48-2.68
			c-1.28,0.2-2.43,0.62-3.45,1.25s-1.82,1.42-2.4,2.37s-0.88,2.01-0.88,3.17c0,0.5,0.14,0.88,0.43,1.15s0.69,0.4,1.21,0.4
			c1.08,0,2.02-0.49,2.83-1.48S444.69,80.97,445.06,79.16z"/>
	</g>
	<g>
		<path fill="none" stroke="#000000" stroke-width="2.5561" stroke-linecap="round" stroke-linejoin="round" d="M64.4,137.51H50.2
			c-1.85,0-3.34,1.5-3.34,3.34v26.73c0,1.85,1.5,3.34,3.34,3.34h20.05c1.85,0,3.34-1.5,3.34-3.34V146.7L64.4,137.51z"/>
		<polyline fill="none" stroke="#000000" stroke-width="2.5561" stroke-linecap="round" stroke-linejoin="round" points="
			63.57,137.51 63.57,147.54 73.59,147.54 		"/>
		<path fill="none" stroke="#000000" stroke-width="2.5561" stroke-linecap="round" stroke-linejoin="round" d="M55.22,155.89v-1.67
			h10.02v1.67"/>
		<path fill="none" stroke="#000000" stroke-width="2.5561" stroke-linecap="round" stroke-linejoin="round" d="M58.56,164.25h3.34"
			/>
		<path fill="none" stroke="#000000" stroke-width="2.5561" stroke-linecap="round" stroke-linejoin="round" d="M60.23,154.22v10.02
			"/>
	</g>
	<g>
		<g>
			<g>
				<path fill="none" stroke="#000000" stroke-width="2.1727" stroke-linecap="round" stroke-linejoin="round" d="M25.25,19.76
					H13.17c-1.57,0-2.84,1.27-2.84,2.84v22.72c0,1.57,1.27,2.84,2.84,2.84h17.04c1.57,0,2.84-1.27,2.84-2.84V27.57L25.25,19.76z"/>
				<polyline fill="none" stroke="#000000" stroke-width="2.1727" stroke-linecap="round" stroke-linejoin="round" points="
					24.54,19.76 24.54,28.28 33.06,28.28 				"/>
				<path fill="none" stroke="#000000" stroke-width="2.1727" stroke-linecap="round" stroke-linejoin="round" d="M17.43,35.38
					v-1.42h8.52v1.42"/>
				<path fill="none" stroke="#000000" stroke-width="2.1727" stroke-linecap="round" stroke-linejoin="round" d="M20.27,42.48h2.84
					"/>
				<path fill="none" stroke="#000000" stroke-width="2.1727" stroke-linecap="round" stroke-linejoin="round" d="M21.7,33.96v8.52"
					/>
			</g>
			<g>
				<path fill="none" stroke="#000000" stroke-width="2.1727" stroke-linecap="round" stroke-linejoin="round" d="M64.39,19.76
					H52.32c-1.57,0-2.84,1.27-2.84,2.84v22.72c0,1.57,1.27,2.84,2.84,2.84h17.04c1.57,0,2.84-1.27,2.84-2.84V27.57L64.39,19.76z"/>
				<polyline fill="none" stroke="#000000" stroke-width="2.1727" stroke-linecap="round" stroke-linejoin="round" points="
					63.68,19.76 63.68,28.28 72.2,28.28 				"/>
				<path fill="none" stroke="#000000" stroke-width="2.1727" stroke-linecap="round" stroke-linejoin="round" d="M56.58,35.38
					v-1.42h8.52v1.42"/>
				<path fill="none" stroke="#000000" stroke-width="2.1727" stroke-linecap="round" stroke-linejoin="round" d="M59.42,42.48h2.84
					"/>
				<path fill="none" stroke="#000000" stroke-width="2.1727" stroke-linecap="round" stroke-linejoin="round" d="M60.84,33.96v8.52
					"/>
			</g>
			<g>
				<path fill="none" stroke="#000000" stroke-width="2.1727" stroke-linecap="round" stroke-linejoin="round" d="M103.54,19.76
					H91.47c-1.57,0-2.84,1.27-2.84,2.84v22.72c0,1.57,1.27,2.84,2.84,2.84h17.04c1.57,0,2.84-1.27,2.84-2.84V27.57L103.54,19.76z"/>
				<polyline fill="none" stroke="#000000" stroke-width="2.1727" stroke-linecap="round" stroke-linejoin="round" points="
					102.83,19.76 102.83,28.28 111.35,28.28 				"/>
				<path fill="none" stroke="#000000" stroke-width="2.1727" stroke-linecap="round" stroke-linejoin="round" d="M95.73,35.38
					v-1.42h8.52v1.42"/>
				<path fill="none" stroke="#000000" stroke-width="2.1727" stroke-linecap="round" stroke-linejoin="round" d="M98.57,42.48h2.84
					"/>
				<path fill="none" stroke="#000000" stroke-width="2.1727" stroke-linecap="round" stroke-linejoin="round" d="M99.99,33.96v8.52
					"/>
			</g>
		</g>
		<path fill="none" stroke="#000000" stroke-width="2.5561" stroke-linecap="round" stroke-linejoin="round" d="M50.81,82.61
			l2.51-4.85c0.56-1.1,1.67-1.81,2.91-1.84H74.2c1.85,0,3.34,1.49,3.35,3.34c0,0.28-0.04,0.57-0.11,0.84l-2.57,10.02
			c-0.38,1.48-1.73,2.52-3.26,2.51H47.47c-1.85,0-3.34-1.5-3.34-3.34V67.57c0-1.85,1.5-3.34,3.34-3.34h6.52
			c1.14-0.01,2.2,0.56,2.82,1.5l1.35,2c0.62,0.94,1.67,1.5,2.79,1.5h9.91c1.85,0,3.34,1.5,3.34,3.34v3.34"/>
	</g>
	<g>
		<g>
			<path fill="none" stroke="#000000" stroke-width="2.1727" stroke-linecap="round" stroke-linejoin="round" d="M202.85,19.76
				h-12.07c-1.57,0-2.84,1.27-2.84,2.84v22.72c0,1.57,1.27,2.84,2.84,2.84h17.04c1.57,0,2.84-1.27,2.84-2.84V27.57L202.85,19.76z"/>
			<polyline fill="none" stroke="#000000" stroke-width="2.1727" stroke-linecap="round" stroke-linejoin="round" points="
				202.14,19.76 202.14,28.28 210.66,28.28 			"/>
			
				<circle fill="none" stroke="#000000" stroke-width="2.1727" stroke-linecap="round" stroke-linejoin="round" cx="196.46" cy="35.38" r="2.84"/>
			<path fill="none" stroke="#000000" stroke-width="2.1727" stroke-linecap="round" stroke-linejoin="round" d="M210.66,41.06
				l-1.55-1.55c-1.11-1.1-2.9-1.1-4,0l-8.65,8.65"/>
		</g>
		<g>
			<path fill="none" stroke="#000000" stroke-width="2.1727" stroke-linecap="round" stroke-linejoin="round" d="M165.87,19.76
				H153.8c-1.57,0-2.84,1.27-2.84,2.84v22.72c0,1.57,1.27,2.84,2.84,2.84h17.04c1.57,0,2.84-1.27,2.84-2.84V27.57L165.87,19.76z"/>
			<polyline fill="none" stroke="#000000" stroke-width="2.1727" stroke-linecap="round" stroke-linejoin="round" points="
				165.16,19.76 165.16,28.28 173.68,28.28 			"/>
			
				<circle fill="none" stroke="#000000" stroke-width="2.1727" stroke-linecap="round" stroke-linejoin="round" cx="159.48" cy="35.38" r="2.84"/>
			<path fill="none" stroke="#000000" stroke-width="2.1727" stroke-linecap="round" stroke-linejoin="round" d="M173.68,41.06
				l-1.55-1.55c-1.11-1.1-2.9-1.1-4,0l-8.65,8.65"/>
		</g>
		<path fill="none" stroke="#000000" stroke-width="2.5561" stroke-linecap="round" stroke-linejoin="round" d="M170.78,82.61
			l2.51-4.85c0.56-1.1,1.67-1.81,2.91-1.84h17.98c1.85,0,3.34,1.49,3.35,3.34c0,0.28-0.04,0.57-0.11,0.84l-2.57,10.02
			c-0.38,1.48-1.73,2.52-3.26,2.51h-24.14c-1.85,0-3.34-1.5-3.34-3.34V67.57c0-1.85,1.5-3.34,3.34-3.34h6.52
			c1.14-0.01,2.2,0.56,2.82,1.5l1.35,2c0.62,0.94,1.67,1.5,2.79,1.5h9.91c1.85,0,3.34,1.5,3.34,3.34v3.34"/>
	</g>
	<g>
		<path fill="none" stroke="#000000" stroke-width="2.5561" stroke-linecap="round" stroke-linejoin="round" d="M212.28,137.51
			h-14.2c-1.85,0-3.34,1.5-3.34,3.34v26.73c0,1.85,1.5,3.34,3.34,3.34h20.05c1.85,0,3.34-1.5,3.34-3.34V146.7L212.28,137.51z"/>
		<polyline fill="none" stroke="#000000" stroke-width="2.5561" stroke-linecap="round" stroke-linejoin="round" points="
			211.44,137.51 211.44,147.54 221.46,147.54 		"/>
		
			<line fill="none" stroke="#000000" stroke-width="2.5561" stroke-linecap="round" stroke-linejoin="round" x1="214.78" y1="155.89" x2="201.42" y2="155.89"/>
		
			<line fill="none" stroke="#000000" stroke-width="2.5561" stroke-linecap="round" stroke-linejoin="round" x1="214.78" y1="162.58" x2="201.42" y2="162.58"/>
		
			<line fill="none" stroke="#000000" stroke-width="2.5561" stroke-linecap="round" stroke-linejoin="round" x1="204.76" y1="149.21" x2="201.42" y2="149.21"/>
	</g>
	<path fill="none" stroke="#58595B" stroke-width="2" stroke-linecap="round" stroke-linejoin="round" d="M21.7,51.76v0.33
		c0,3.09,2.51,5.6,5.6,5.6h33.54h33.22c3.28,0,5.93-2.65,5.93-5.93v0"/>
	<polyline fill="none" stroke="#58595B" stroke-width="2" stroke-linecap="round" stroke-linejoin="round" points="60.84,62.92 
		60.84,57.69 60.84,51.76 	"/>
	<path fill="none" stroke="#58595B" stroke-width="2" stroke-linecap="round" stroke-linejoin="round" d="M199.3,51.76L199.3,51.76
		c0,2.55-2.07,4.62-4.62,4.62h-13.87h-13.87c-2.55,0-4.62-2.07-4.62-4.62v0"/>
	
		<line fill="none" stroke="#58595B" stroke-width="2" stroke-linecap="round" stroke-linejoin="round" x1="180.81" y1="62.92" x2="180.81" y2="56.38"/>
	<g>
		
			<line fill="none" stroke="#000000" stroke-width="2" stroke-linecap="round" stroke-linejoin="round" x1="60.23" y1="96.84" x2="60.23" y2="121.87"/>
		<g>
			<polygon points="56.45,119.29 60.23,133.38 64,119.29 			"/>
		</g>
	</g>
	<g>
		
			<line fill="none" stroke="#000000" stroke-width="2" stroke-linecap="round" stroke-linejoin="round" x1="536.97" y1="96.84" x2="536.97" y2="121.87"/>
		<g>
			<polygon points="533.2,119.29 536.97,133.38 540.75,119.29 			"/>
		</g>
	</g>
	<g>
		
			<line fill="none" stroke="#000000" stroke-width="2" stroke-linecap="round" stroke-linejoin="round" x1="89.07" y1="155.89" x2="189.66" y2="155.89"/>
		<g>
			<polygon points="91.64,159.67 77.55,155.89 91.64,152.12 			"/>
		</g>
	</g>
	<g>
		
			<line fill="none" stroke="#000000" stroke-width="2" stroke-linecap="round" stroke-linejoin="round" x1="180.81" y1="96.84" x2="82.91" y2="135.73"/>
		<g>
			<polygon points="83.91,131.27 72.2,139.98 86.69,138.29 			"/>
		</g>
	</g>
	<g>
		<path d="M447.52,198.59v-8.31c0-0.75-0.28-1.13-0.84-1.13c-0.71,0-1.07,0.49-1.07,1.48v7.96h-1.85v-8.51
			c0-0.62-0.29-0.92-0.86-0.92c-0.7,0-1.05,0.49-1.05,1.48v7.96h-2.17v-10.87h1.93l0.14,1.35h0.16c0.08-1.04,0.7-1.56,1.87-1.56
			c0.46,0,0.84,0.13,1.14,0.39c0.3,0.26,0.51,0.65,0.61,1.17h0.17c0.03-0.42,0.2-0.79,0.51-1.1c0.3-0.31,0.74-0.46,1.32-0.46
			c0.75,0,1.3,0.2,1.64,0.6s0.51,1.06,0.51,1.96v8.51H447.52z"/>
		<path d="M459.23,198.7l-0.1-2.4h-0.22c-0.08,0.83-0.44,1.46-1.06,1.88c-0.63,0.42-1.44,0.63-2.46,0.63
			c-1.13,0-2.01-0.27-2.64-0.82s-0.93-1.32-0.93-2.32c0-1.15,0.43-2.03,1.29-2.64c0.86-0.62,2.07-0.92,3.63-0.92
			c0.78,0,1.46,0.06,2.05,0.17v-0.5c0-0.72-0.25-1.26-0.76-1.59c-0.51-0.34-1.27-0.52-2.27-0.55l-2.6-0.07l0.21-1.93l2.19,0.03
			c1.8,0.03,3.13,0.42,4,1.16c0.87,0.75,1.31,1.84,1.31,3.28v4.53l1.85,0.22v1.74L459.23,198.7z M458.8,193.94
			c-0.35-0.05-0.7-0.08-1.04-0.09s-0.7-0.01-1.05-0.01c-1.89,0-2.83,0.57-2.83,1.72c0,0.48,0.16,0.85,0.49,1.11
			c0.32,0.26,0.78,0.39,1.38,0.39c0.68,0,1.24-0.12,1.7-0.35c0.45-0.23,0.79-0.53,1.02-0.89s0.34-0.73,0.34-1.12V193.94z"/>
		<path d="M464.79,198.59v-1.91h4.14v-7.05h-3.53v-1.91h5.7v8.96h3.34v1.91H464.79z M469.94,186c-0.42,0-0.77-0.15-1.07-0.45
			c-0.3-0.3-0.45-0.65-0.45-1.07c0-0.42,0.15-0.78,0.45-1.08c0.3-0.29,0.65-0.44,1.07-0.44c0.42,0,0.78,0.15,1.08,0.44
			s0.44,0.65,0.44,1.08c0,0.42-0.15,0.77-0.44,1.07C470.73,185.85,470.37,186,469.94,186z"/>
		<path d="M483.86,198.59v-7.08c0-0.66-0.17-1.16-0.51-1.52s-0.82-0.53-1.44-0.53c-1.71,0-2.56,1.01-2.56,3.02v6.11h-2.17v-10.87
			h1.97l0.17,1.97h0.24c0.12-1.45,1.08-2.17,2.87-2.17c1.15,0,2.04,0.35,2.67,1.04s0.94,1.68,0.94,2.95v7.08H483.86z"/>
		<path d="M489.4,198.59v-14.56h9.64v1.95h-7.51v4.35h5.66v1.95h-5.66v4.37h7.51v1.95H489.4z"/>
		<path d="M501.15,198.59l3.89-5.37l-3.89-5.5h2.46l2.6,3.8l2.6-3.8h2.46l-3.94,5.41l3.94,5.46h-2.46l-2.66-3.77l-2.55,3.77H501.15z
			"/>
		<path d="M514.09,203.31v-15.59h1.97l0.17,1.97h0.13c0.1-0.68,0.41-1.22,0.93-1.6c0.52-0.38,1.21-0.57,2.06-0.57
			c1.43,0,2.51,0.48,3.24,1.46s1.1,2.4,1.1,4.29c0,1.82-0.37,3.2-1.1,4.13s-1.81,1.41-3.24,1.41c-0.83,0-1.51-0.19-2.01-0.57
			c-0.51-0.38-0.8-0.92-0.87-1.6h-0.21v6.69H514.09z M516.26,193.53c0,2.28,0.87,3.43,2.6,3.43c1.78,0,2.67-1.23,2.67-3.69
			c0-2.6-0.89-3.9-2.67-3.9c-1.74,0-2.6,1.14-2.6,3.42V193.53z"/>
		<path d="M533.06,198.7l-0.1-2.4h-0.22c-0.08,0.83-0.44,1.46-1.06,1.88c-0.63,0.42-1.44,0.63-2.46,0.63
			c-1.13,0-2.01-0.27-2.64-0.82s-0.93-1.32-0.93-2.32c0-1.15,0.43-2.03,1.29-2.64c0.86-0.62,2.07-0.92,3.63-0.92
			c0.78,0,1.46,0.06,2.05,0.17v-0.5c0-0.72-0.25-1.26-0.76-1.59c-0.51-0.34-1.27-0.52-2.27-0.55l-2.6-0.07l0.21-1.93l2.19,0.03
			c1.8,0.03,3.13,0.42,4,1.16c0.87,0.75,1.31,1.84,1.31,3.28v4.53l1.85,0.22v1.74L533.06,198.7z M532.63,193.94
			c-0.35-0.05-0.7-0.08-1.04-0.09c-0.35-0.01-0.7-0.01-1.05-0.01c-1.89,0-2.83,0.57-2.83,1.72c0,0.48,0.16,0.85,0.49,1.11
			c0.32,0.26,0.78,0.39,1.38,0.39c0.68,0,1.24-0.12,1.7-0.35c0.45-0.23,0.79-0.53,1.02-0.89s0.34-0.73,0.34-1.12V193.94z"/>
		<path d="M545.38,198.59v-7.08c0-0.66-0.17-1.16-0.51-1.52s-0.82-0.53-1.44-0.53c-1.71,0-2.56,1.01-2.56,3.02v6.11h-2.17v-10.87
			h1.97l0.17,1.97h0.24c0.12-1.45,1.08-2.17,2.87-2.17c1.15,0,2.04,0.35,2.67,1.04s0.94,1.68,0.94,2.95v7.08H545.38z"/>
		<path d="M554.6,198.8c-1.42,0-2.5-0.47-3.23-1.41c-0.74-0.94-1.1-2.31-1.1-4.13c0-1.89,0.37-3.32,1.1-4.29
			c0.73-0.97,1.81-1.46,3.23-1.46c0.81,0,1.47,0.19,1.98,0.57c0.51,0.38,0.81,0.92,0.9,1.6h0.21v-6.48h2.17v15.38l-1.95,0.1
			l-0.22-2.07h-0.21c-0.07,0.68-0.36,1.22-0.87,1.6C556.11,198.61,555.43,198.8,554.6,198.8z M557.69,193.53v-0.74
			c0-2.28-0.87-3.42-2.6-3.42c-1.78,0-2.67,1.3-2.67,3.9c0,2.46,0.89,3.69,2.67,3.69C556.82,196.95,557.69,195.81,557.69,193.53z"/>
		<path d="M568.68,198.8c-1.85,0-3.28-0.49-4.29-1.46c-1.01-0.97-1.51-2.38-1.51-4.2c0-1.78,0.43-3.16,1.28-4.14
			s2.06-1.48,3.62-1.48c1.47,0,2.61,0.44,3.41,1.33c0.8,0.89,1.21,2.18,1.21,3.88c0,0.5-0.02,0.96-0.06,1.39h-7.34
			c0.19,0.91,0.62,1.6,1.29,2.07c0.67,0.47,1.55,0.7,2.65,0.7c0.45,0,0.9-0.03,1.33-0.08s0.88-0.12,1.33-0.21l0.27,1.91
			c-0.64,0.12-1.23,0.2-1.76,0.24S569.09,198.8,568.68,198.8z M564.91,192.46h5.52c0-0.98-0.23-1.73-0.7-2.25s-1.11-0.79-1.93-0.79
			c-0.84,0-1.51,0.26-2.01,0.79S565,191.49,564.91,192.46z"/>
		<path d="M579.21,198.8c-1.42,0-2.5-0.47-3.23-1.41c-0.74-0.94-1.1-2.31-1.1-4.13c0-1.89,0.37-3.32,1.1-4.29
			c0.73-0.97,1.81-1.46,3.23-1.46c0.81,0,1.47,0.19,1.98,0.57c0.51,0.38,0.81,0.92,0.9,1.6h0.21v-6.48h2.17v15.38l-1.95,0.1
			l-0.22-2.07h-0.21c-0.07,0.68-0.36,1.22-0.87,1.6C580.72,198.61,580.04,198.8,579.21,198.8z M582.3,193.53v-0.74
			c0-2.28-0.87-3.42-2.6-3.42c-1.78,0-2.67,1.3-2.67,3.9c0,2.46,0.89,3.69,2.67,3.69C581.43,196.95,582.3,195.81,582.3,193.53z"/>
		<path d="M592.35,198.8c-0.42,0-0.77-0.15-1.07-0.45c-0.3-0.3-0.45-0.65-0.45-1.07c0-0.42,0.15-0.78,0.45-1.08
			c0.3-0.29,0.65-0.44,1.07-0.44c0.42,0,0.78,0.15,1.08,0.44s0.44,0.65,0.44,1.08c0,0.42-0.15,0.77-0.44,1.07
			C593.13,198.65,592.77,198.8,592.35,198.8z"/>
		<path d="M606.62,198.8c-1.65,0-2.84-0.34-3.57-1.03c-0.74-0.68-1.1-1.78-1.1-3.28v-4.86h-2.73v-1.91h2.73v-3.28h2.17v3.28h4.94
			v1.91h-4.94v4.76c0,0.86,0.21,1.49,0.63,1.88c0.42,0.39,1.11,0.58,2.08,0.58c0.34,0,0.7-0.02,1.09-0.06
			c0.38-0.04,0.82-0.09,1.31-0.15l0.25,1.91c-0.48,0.08-0.95,0.14-1.4,0.18C607.62,198.78,607.13,198.8,606.62,198.8z"/>
		<path d="M617.9,198.8c-1.85,0-3.28-0.49-4.29-1.46c-1.01-0.97-1.51-2.38-1.51-4.2c0-1.78,0.43-3.16,1.28-4.14s2.06-1.48,3.62-1.48
			c1.47,0,2.61,0.44,3.41,1.33c0.8,0.89,1.21,2.18,1.21,3.88c0,0.5-0.02,0.96-0.06,1.39h-7.34c0.19,0.91,0.62,1.6,1.29,2.07
			c0.67,0.47,1.55,0.7,2.65,0.7c0.45,0,0.9-0.03,1.33-0.08s0.88-0.12,1.33-0.21l0.27,1.91c-0.64,0.12-1.23,0.2-1.76,0.24
			S618.31,198.8,617.9,198.8z M614.13,192.46h5.52c0-0.98-0.23-1.73-0.7-2.25s-1.11-0.79-1.93-0.79c-0.84,0-1.51,0.26-2.01,0.79
			S614.21,191.49,614.13,192.46z"/>
		<path d="M624.19,198.59l3.89-5.37l-3.89-5.5h2.46l2.6,3.8l2.6-3.8h2.46l-3.94,5.41l3.94,5.46h-2.46l-2.66-3.77l-2.55,3.77H624.19z
			"/>
	</g>
	<g>
		<path d="M593.78,161.73v-8.31c0-0.75-0.28-1.13-0.84-1.13c-0.71,0-1.07,0.49-1.07,1.48v7.96h-1.85v-8.51
			c0-0.62-0.29-0.92-0.86-0.92c-0.7,0-1.05,0.49-1.05,1.48v7.96h-2.17v-10.87h1.93l0.14,1.35h0.16c0.08-1.04,0.7-1.56,1.87-1.56
			c0.46,0,0.84,0.13,1.14,0.39c0.3,0.26,0.51,0.65,0.61,1.17h0.17c0.03-0.42,0.2-0.79,0.51-1.1c0.3-0.31,0.74-0.46,1.32-0.46
			c0.75,0,1.3,0.2,1.64,0.6s0.51,1.06,0.51,1.96v8.51H593.78z"/>
		<path d="M605.49,161.83l-0.1-2.4h-0.21c-0.08,0.83-0.44,1.46-1.06,1.88c-0.63,0.42-1.44,0.63-2.46,0.63
			c-1.13,0-2.01-0.27-2.63-0.82s-0.93-1.32-0.93-2.32c0-1.15,0.43-2.03,1.29-2.65c0.86-0.62,2.07-0.92,3.63-0.92
			c0.78,0,1.46,0.06,2.05,0.17v-0.5c0-0.72-0.25-1.26-0.76-1.59c-0.51-0.34-1.27-0.52-2.27-0.55l-2.6-0.07l0.21-1.93l2.19,0.03
			c1.8,0.03,3.13,0.42,4,1.16c0.87,0.75,1.31,1.84,1.31,3.28v4.53l1.85,0.23v1.74L605.49,161.83z M605.06,157.07
			c-0.35-0.05-0.7-0.09-1.04-0.09c-0.34-0.01-0.7-0.01-1.05-0.01c-1.89,0-2.83,0.57-2.83,1.72c0,0.48,0.16,0.85,0.49,1.11
			c0.32,0.26,0.78,0.39,1.38,0.39c0.68,0,1.24-0.12,1.7-0.35c0.45-0.23,0.79-0.53,1.02-0.89s0.34-0.73,0.34-1.12V157.07z"/>
		<path d="M611.05,161.73v-1.91h4.14v-7.05h-3.53v-1.91h5.7v8.96h3.34v1.91H611.05z M616.21,149.13c-0.42,0-0.77-0.15-1.07-0.45
			c-0.3-0.3-0.45-0.65-0.45-1.07c0-0.42,0.15-0.78,0.45-1.08c0.3-0.29,0.66-0.44,1.07-0.44c0.42,0,0.78,0.15,1.08,0.44
			s0.44,0.65,0.44,1.08c0,0.42-0.15,0.77-0.44,1.07C616.99,148.98,616.63,149.13,616.21,149.13z"/>
		<path d="M630.12,161.73v-7.08c0-0.66-0.17-1.16-0.51-1.52s-0.82-0.53-1.44-0.53c-1.71,0-2.56,1-2.56,3.01v6.11h-2.17v-10.87h1.97
			l0.17,1.97h0.24c0.12-1.45,1.08-2.17,2.87-2.17c1.15,0,2.04,0.35,2.67,1.05s0.94,1.68,0.94,2.95v7.08H630.12z"/>
		<path d="M635.66,161.73v-14.56h9.64v1.95h-7.51v4.35h5.66v1.95h-5.66v4.37h7.51v1.95H635.66z"/>
		<path d="M647.41,161.73l3.89-5.37l-3.89-5.5h2.46l2.6,3.8l2.6-3.8h2.46l-3.94,5.41l3.94,5.46h-2.46l-2.66-3.77l-2.55,3.77H647.41z
			"/>
		<path d="M660.35,166.44v-15.59h1.97l0.17,1.97h0.13c0.1-0.68,0.41-1.22,0.93-1.6c0.52-0.38,1.21-0.57,2.06-0.57
			c1.43,0,2.51,0.49,3.24,1.46s1.1,2.4,1.1,4.29c0,1.82-0.37,3.2-1.1,4.13s-1.81,1.41-3.24,1.41c-0.83,0-1.51-0.19-2.02-0.57
			c-0.51-0.38-0.8-0.92-0.87-1.6h-0.21v6.69H660.35z M662.52,156.66c0,2.28,0.87,3.42,2.6,3.42c1.78,0,2.67-1.23,2.67-3.69
			c0-2.6-0.89-3.9-2.67-3.9c-1.74,0-2.6,1.14-2.6,3.42V156.66z"/>
		<path d="M679.32,161.83l-0.1-2.4H679c-0.08,0.83-0.44,1.46-1.06,1.88c-0.63,0.42-1.44,0.63-2.46,0.63c-1.13,0-2.01-0.27-2.63-0.82
			s-0.93-1.32-0.93-2.32c0-1.15,0.43-2.03,1.29-2.65c0.86-0.62,2.07-0.92,3.63-0.92c0.78,0,1.46,0.06,2.05,0.17v-0.5
			c0-0.72-0.25-1.26-0.76-1.59c-0.51-0.34-1.27-0.52-2.27-0.55l-2.6-0.07l0.21-1.93l2.19,0.03c1.8,0.03,3.13,0.42,4,1.16
			c0.87,0.75,1.31,1.84,1.31,3.28v4.53l1.85,0.23v1.74L679.32,161.83z M678.89,157.07c-0.35-0.05-0.7-0.09-1.04-0.09
			c-0.34-0.01-0.7-0.01-1.05-0.01c-1.89,0-2.83,0.57-2.83,1.72c0,0.48,0.16,0.85,0.49,1.11c0.32,0.26,0.78,0.39,1.38,0.39
			c0.68,0,1.24-0.12,1.7-0.35c0.45-0.23,0.79-0.53,1.02-0.89s0.34-0.73,0.34-1.12V157.07z"/>
		<path d="M691.64,161.73v-7.08c0-0.66-0.17-1.16-0.51-1.52s-0.82-0.53-1.44-0.53c-1.71,0-2.56,1-2.56,3.01v6.11h-2.17v-10.87h1.97
			l0.17,1.97h0.24c0.12-1.45,1.08-2.17,2.87-2.17c1.15,0,2.04,0.35,2.67,1.05s0.94,1.68,0.94,2.95v7.08H691.64z"/>
		<path d="M700.86,161.93c-1.42,0-2.5-0.47-3.24-1.41c-0.74-0.94-1.1-2.31-1.1-4.13c0-1.89,0.37-3.32,1.1-4.29
			c0.73-0.97,1.81-1.46,3.24-1.46c0.81,0,1.47,0.19,1.98,0.57c0.51,0.38,0.81,0.92,0.9,1.6h0.21v-6.48h2.17v15.38l-1.95,0.1
			l-0.21-2.07h-0.22c-0.07,0.68-0.36,1.22-0.87,1.6C702.37,161.74,701.7,161.93,700.86,161.93z M703.95,156.66v-0.74
			c0-2.28-0.87-3.42-2.6-3.42c-1.78,0-2.67,1.3-2.67,3.9c0,2.46,0.89,3.69,2.67,3.69C703.08,160.08,703.95,158.94,703.95,156.66z"/>
		<path d="M714.94,161.93c-1.85,0-3.28-0.49-4.29-1.46c-1.01-0.97-1.51-2.37-1.51-4.2c0-1.78,0.43-3.16,1.28-4.14
			s2.06-1.48,3.62-1.48c1.47,0,2.61,0.44,3.41,1.33c0.8,0.89,1.21,2.18,1.21,3.88c0,0.5-0.02,0.96-0.06,1.39h-7.34
			c0.19,0.91,0.62,1.6,1.29,2.07c0.67,0.47,1.55,0.7,2.65,0.7c0.45,0,0.9-0.03,1.33-0.08c0.44-0.05,0.88-0.12,1.33-0.21l0.27,1.91
			c-0.64,0.12-1.23,0.2-1.76,0.24S715.35,161.93,714.94,161.93z M711.17,155.59h5.52c0-0.98-0.23-1.73-0.7-2.25
			c-0.46-0.52-1.11-0.78-1.93-0.78c-0.84,0-1.51,0.26-2.01,0.79S711.26,154.62,711.17,155.59z"/>
		<path d="M725.47,161.93c-1.42,0-2.5-0.47-3.24-1.41c-0.74-0.94-1.1-2.31-1.1-4.13c0-1.89,0.37-3.32,1.1-4.29
			c0.73-0.97,1.81-1.46,3.24-1.46c0.81,0,1.47,0.19,1.98,0.57c0.51,0.38,0.81,0.92,0.9,1.6h0.21v-6.48h2.17v15.38l-1.95,0.1
			l-0.21-2.07h-0.22c-0.07,0.68-0.36,1.22-0.87,1.6C726.98,161.74,726.31,161.93,725.47,161.93z M728.56,156.66v-0.74
			c0-2.28-0.87-3.42-2.6-3.42c-1.78,0-2.67,1.3-2.67,3.9c0,2.46,0.89,3.69,2.67,3.69C727.69,160.08,728.56,158.94,728.56,156.66z"/>
		<path d="M738.61,161.93c-0.42,0-0.77-0.15-1.07-0.45c-0.3-0.3-0.45-0.65-0.45-1.07c0-0.42,0.15-0.78,0.45-1.08
			c0.3-0.29,0.65-0.44,1.07-0.44c0.42,0,0.78,0.15,1.08,0.44s0.44,0.65,0.44,1.08c0,0.42-0.15,0.77-0.44,1.07
			C739.39,161.78,739.03,161.93,738.61,161.93z"/>
		<path d="M749.34,161.93c-0.49,0-0.98-0.02-1.46-0.06c-0.48-0.04-0.96-0.09-1.46-0.15v-15.38h2.17v6.48h0.21
			c0.1-1.45,0.99-2.17,2.67-2.17c1.45,0,2.57,0.43,3.36,1.28s1.19,2.07,1.19,3.64c0,2.02-0.58,3.58-1.75,4.69
			C753.12,161.37,751.47,161.93,749.34,161.93z M748.61,155.61v4.44c0.19,0.01,0.39,0.02,0.58,0.03c0.2,0,0.39,0,0.58,0
			c1.31,0,2.32-0.39,3.03-1.18c0.71-0.79,1.07-1.9,1.07-3.33c0-0.98-0.22-1.74-0.65-2.28c-0.43-0.53-1.05-0.8-1.85-0.8
			C749.53,152.5,748.61,153.54,748.61,155.61z"/>
		<path d="M761.65,161.93c-0.49,0-0.98-0.02-1.46-0.06c-0.48-0.04-0.96-0.09-1.46-0.15v-15.38h2.17v6.48h0.21
			c0.1-1.45,0.99-2.17,2.67-2.17c1.45,0,2.57,0.43,3.36,1.28s1.19,2.07,1.19,3.64c0,2.02-0.58,3.58-1.75,4.69
			C765.42,161.37,763.77,161.93,761.65,161.93z M760.91,155.61v4.44c0.19,0.01,0.39,0.02,0.58,0.03c0.2,0,0.39,0,0.58,0
			c1.31,0,2.32-0.39,3.03-1.18c0.71-0.79,1.07-1.9,1.07-3.33c0-0.98-0.22-1.74-0.65-2.28c-0.43-0.53-1.05-0.8-1.85-0.8
			C761.83,152.5,760.91,153.54,760.91,155.61z"/>
		<path d="M777.14,161.93c-1.26,0-2.17-0.34-2.73-1.03s-0.84-1.78-0.84-3.28v-9.37h-3.2v-1.91h5.37v11.18c0,0.57,0.05,1.04,0.16,1.4
			s0.32,0.63,0.64,0.8c0.32,0.17,0.79,0.26,1.41,0.26c0.57,0,1.29-0.13,2.17-0.39l0.25,1.91c-0.55,0.15-1.08,0.26-1.59,0.33
			C778.28,161.9,777.73,161.93,777.14,161.93z"/>
	</g>
	<g>
		<path fill="none" stroke="#000000" stroke-width="2.5561" stroke-linecap="round" stroke-linejoin="round" d="M541.15,137.51
			h-14.2c-1.85,0-3.34,1.5-3.34,3.34v26.73c0,1.85,1.5,3.34,3.34,3.34H547c1.85,0,3.34-1.5,3.34-3.34V146.7L541.15,137.51z"/>
		<polyline fill="none" stroke="#000000" stroke-width="2.5561" stroke-linecap="round" stroke-linejoin="round" points="
			540.32,137.51 540.32,147.54 550.34,147.54 		"/>
		<path fill="none" stroke="#000000" stroke-width="2.5561" stroke-linecap="round" stroke-linejoin="round" d="M531.96,155.89
			v-1.67h10.02v1.67"/>
		<path fill="none" stroke="#000000" stroke-width="2.5561" stroke-linecap="round" stroke-linejoin="round" d="M535.3,164.25h3.34"
			/>
		<path fill="none" stroke="#000000" stroke-width="2.5561" stroke-linecap="round" stroke-linejoin="round" d="M536.97,154.22
			v10.02"/>
	</g>
	<g>
		<g>
			<path fill="none" stroke="#000000" stroke-width="2.1727" stroke-linecap="round" stroke-linejoin="round" d="M559.6,19.76
				h-12.07c-1.57,0-2.84,1.27-2.84,2.84v22.72c0,1.57,1.27,2.84,2.84,2.84h17.04c1.57,0,2.84-1.27,2.84-2.84V27.57L559.6,19.76z"/>
			<polyline fill="none" stroke="#000000" stroke-width="2.1727" stroke-linecap="round" stroke-linejoin="round" points="
				558.89,19.76 558.89,28.28 567.41,28.28 			"/>
			
				<circle fill="none" stroke="#000000" stroke-width="2.1727" stroke-linecap="round" stroke-linejoin="round" cx="553.21" cy="35.38" r="2.84"/>
			<path fill="none" stroke="#000000" stroke-width="2.1727" stroke-linecap="round" stroke-linejoin="round" d="M567.41,41.06
				l-1.55-1.55c-1.11-1.1-2.9-1.1-4,0l-8.65,8.65"/>
		</g>
		<g>
			<path fill="none" stroke="#000000" stroke-width="2.1727" stroke-linecap="round" stroke-linejoin="round" d="M522.62,19.76
				h-12.07c-1.57,0-2.84,1.27-2.84,2.84v22.72c0,1.57,1.27,2.84,2.84,2.84h17.04c1.57,0,2.84-1.27,2.84-2.84V27.57L522.62,19.76z"/>
			<polyline fill="none" stroke="#000000" stroke-width="2.1727" stroke-linecap="round" stroke-linejoin="round" points="
				521.91,19.76 521.91,28.28 530.43,28.28 			"/>
			
				<circle fill="none" stroke="#000000" stroke-width="2.1727" stroke-linecap="round" stroke-linejoin="round" cx="516.23" cy="35.38" r="2.84"/>
			<path fill="none" stroke="#000000" stroke-width="2.1727" stroke-linecap="round" stroke-linejoin="round" d="M530.43,41.06
				l-1.55-1.55c-1.11-1.1-2.9-1.1-4,0l-8.65,8.65"/>
		</g>
		<path fill="none" stroke="#000000" stroke-width="2.5561" stroke-linecap="round" stroke-linejoin="round" d="M527.53,82.61
			l2.51-4.85c0.56-1.1,1.67-1.81,2.91-1.84h17.98c1.85,0,3.34,1.49,3.35,3.34c0,0.28-0.04,0.57-0.11,0.84l-2.57,10.02
			c-0.38,1.48-1.73,2.52-3.26,2.51h-24.14c-1.85,0-3.34-1.5-3.34-3.34V67.57c0-1.85,1.5-3.34,3.34-3.34h6.52
			c1.14-0.01,2.2,0.56,2.82,1.5l1.35,2c0.62,0.94,1.67,1.5,2.79,1.5h9.91c1.85,0,3.34,1.5,3.34,3.34v3.34"/>
	</g>
	<g>
		<path fill="none" stroke="#000000" stroke-width="2.5561" stroke-linecap="round" stroke-linejoin="round" d="M619.42,104.1h-14.2
			c-1.85,0-3.34,1.5-3.34,3.34v26.73c0,1.85,1.5,3.34,3.34,3.34h20.05c1.85,0,3.34-1.5,3.34-3.34v-20.88L619.42,104.1z"/>
		<polyline fill="none" stroke="#000000" stroke-width="2.5561" stroke-linecap="round" stroke-linejoin="round" points="
			618.59,104.1 618.59,114.12 628.61,114.12 		"/>
		
			<line fill="none" stroke="#000000" stroke-width="2.5561" stroke-linecap="round" stroke-linejoin="round" x1="621.93" y1="122.48" x2="608.56" y2="122.48"/>
		
			<line fill="none" stroke="#000000" stroke-width="2.5561" stroke-linecap="round" stroke-linejoin="round" x1="621.93" y1="129.16" x2="608.56" y2="129.16"/>
		
			<line fill="none" stroke="#000000" stroke-width="2.5561" stroke-linecap="round" stroke-linejoin="round" x1="611.91" y1="115.79" x2="608.56" y2="115.79"/>
	</g>
	<path fill="none" stroke="#58595B" stroke-width="2" stroke-linecap="round" stroke-linejoin="round" d="M556.05,51.76
		L556.05,51.76c0,2.55-2.07,4.62-4.62,4.62h-13.87h-13.87c-2.55,0-4.62-2.07-4.62-4.62v0"/>
	
		<line fill="none" stroke="#58595B" stroke-width="2" stroke-linecap="round" stroke-linejoin="round" x1="537.56" y1="62.92" x2="537.56" y2="56.38"/>
	<g>
		
			<line fill="none" stroke="#000000" stroke-width="2" stroke-linecap="round" stroke-linejoin="round" x1="565.98" y1="138.82" x2="593.86" y2="122.48"/>
		<g>
			<polygon points="570.11,140.78 556.05,144.65 566.29,134.26 			"/>
		</g>
	</g>
	<g>
		<line fill="none" stroke="#000000" stroke-width="19" stroke-linejoin="round" x1="325.19" y1="119.82" x2="399.34" y2="119.82"/>
		<g>
			<polygon points="396.24,96.74 396.24,142.91 419.32,119.83 			"/>
		</g>
	</g>
	<path fill="none" stroke="#000000" stroke-width="2" stroke-linecap="round" stroke-linejoin="round" d="M99.99,14.97L99.99,14.97
		c0-3.2,2.59-5.79,5.79-5.79h50.75c3.2,0,5.79,2.59,5.79,5.79v0"/>
	<g>
		
			<line fill="none" stroke="#000000" stroke-width="0.7782" stroke-linecap="round" stroke-linejoin="round" x1="99.99" y1="12.35" x2="99.99" y2="14.85"/>
		<g>
			<polygon points="103.49,14.38 96.49,14.38 99.99,17.88 			"/>
		</g>
	</g>
	<path fill="none" stroke="#000000" stroke-width="1.2913" stroke-linejoin="round" d="M771.11,208.76H18.9
		c-10.08,0-18.25-8.17-18.25-18.25V18.9C0.65,8.82,8.82,0.65,18.9,0.65h752.21c10.08,0,18.25,8.17,18.25,18.25v171.61
		C789.37,200.59,781.19,208.76,771.11,208.76z"/>
</g>
<g>
</g>
<g>
</g>
<g>
</g>
<g>
</g>
<g>
</g>
<g>
</g>
<g>
</g>
<g>
</g>
</svg>
